<svg width="654" height="80" viewBox="0 0 654 80" fill="none" xmlns="http://www.w3.org/2000/svg">
<path d="M36.082 8.46C44.242 8.46 50.662 10.86 55.342 15.66C60.082 20.4 62.452 27.27 62.452 36.27V72H55.882V53.46H16.282V72H9.80203V36.27C9.80203 27.27 12.142 20.4 16.822 15.66C21.562 10.86 27.982 8.46 36.082 8.46ZM55.882 47.7V35.64C55.882 28.62 54.142 23.34 50.662 19.8C47.182 16.2 42.322 14.4 36.082 14.4C29.842 14.4 24.982 16.2 21.502 19.8C18.022 23.34 16.282 28.62 16.282 35.64V47.7H55.882ZM108.782 72.54C104.102 72.54 99.6023 71.79 95.2823 70.29C91.0223 68.79 87.7223 66.81 85.3823 64.35L87.9923 59.22C90.2723 61.5 93.3023 63.36 97.0823 64.8C100.862 66.18 104.762 66.87 108.782 66.87C114.422 66.87 118.652 65.85 121.472 63.81C124.292 61.71 125.702 59.01 125.702 55.71C125.702 53.19 124.922 51.18 123.362 49.68C121.862 48.18 120.002 47.04 117.782 46.26C115.562 45.42 112.472 44.52 108.512 43.56C103.772 42.36 99.9923 41.22 97.1723 40.14C94.3523 39 91.9223 37.29 89.8823 35.01C87.9023 32.73 86.9123 29.64 86.9123 25.74C86.9123 22.56 87.7523 19.68 89.4323 17.1C91.1123 14.46 93.6923 12.36 97.1723 10.8C100.652 9.24 104.972 8.46 110.132 8.46C113.732 8.46 117.242 8.97 120.662 9.99C124.142 10.95 127.142 12.3 129.662 14.04L127.412 19.35C124.772 17.61 121.952 16.32 118.952 15.48C115.952 14.58 113.012 14.13 110.132 14.13C104.612 14.13 100.442 15.21 97.6223 17.37C94.8623 19.47 93.4823 22.2 93.4823 25.56C93.4823 28.08 94.2323 30.12 95.7323 31.68C97.2923 33.18 99.2123 34.35 101.492 35.19C103.832 35.97 106.952 36.84 110.852 37.8C115.472 38.94 119.192 40.08 122.012 41.22C124.892 42.3 127.322 43.98 129.302 46.26C131.282 48.48 132.272 51.51 132.272 55.35C132.272 58.53 131.402 61.44 129.662 64.08C127.982 66.66 125.372 68.73 121.832 70.29C118.292 71.79 113.942 72.54 108.782 72.54ZM194.772 20.61C188.592 17.01 181.752 14.94 174.252 14.4V72H167.592V14.4C160.212 14.88 153.342 16.95 146.982 20.61L144.552 15.39C152.352 10.77 161.112 8.46 170.832 8.46C180.732 8.46 189.522 10.77 197.202 15.39L194.772 20.61ZM259.307 72L244.907 51.75C243.287 51.93 241.607 52.02 239.867 52.02H222.947V72H216.287V9H239.867C247.907 9 254.207 10.92 258.767 14.76C263.327 18.6 265.607 23.88 265.607 30.6C265.607 35.52 264.347 39.69 261.827 43.11C259.367 46.47 255.827 48.9 251.207 50.4L266.597 72H259.307ZM239.687 46.35C245.927 46.35 250.697 44.97 253.997 42.21C257.297 39.45 258.947 35.58 258.947 30.6C258.947 25.5 257.297 21.6 253.997 18.9C250.697 16.14 245.927 14.76 239.687 14.76H222.947V46.35H239.687ZM317.866 72.54C311.626 72.54 305.956 71.16 300.856 68.4C295.816 65.58 291.856 61.74 288.976 56.88C286.156 52.02 284.746 46.56 284.746 40.5C284.746 34.44 286.156 28.98 288.976 24.12C291.856 19.26 295.816 15.45 300.856 12.69C305.956 9.87 311.626 8.46 317.866 8.46C324.106 8.46 329.716 9.84 334.696 12.6C339.736 15.36 343.696 19.2 346.576 24.12C349.456 28.98 350.896 34.44 350.896 40.5C350.896 46.56 349.456 52.05 346.576 56.97C343.696 61.83 339.736 65.64 334.696 68.4C329.716 71.16 324.106 72.54 317.866 72.54ZM317.866 66.6C322.846 66.6 327.346 65.49 331.366 63.27C335.386 60.99 338.536 57.87 340.816 53.91C343.096 49.89 344.236 45.42 344.236 40.5C344.236 35.58 343.096 31.14 340.816 27.18C338.536 23.16 335.386 20.04 331.366 17.82C327.346 15.54 322.846 14.4 317.866 14.4C312.886 14.4 308.356 15.54 304.276 17.82C300.256 20.04 297.076 23.16 294.736 27.18C292.456 31.14 291.316 35.58 291.316 40.5C291.316 45.42 292.456 49.89 294.736 53.91C297.076 57.87 300.256 60.99 304.276 63.27C308.356 65.49 312.886 66.6 317.866 66.6ZM419.933 66.24V72H368.273V67.77L387.893 42.75H373.943V37.17H392.213L409.763 14.76H368.543V9H418.583V13.14L399.773 37.26H412.823V42.84H395.453L377.183 66.24H419.933ZM469.284 72.54C463.044 72.54 457.374 71.16 452.274 68.4C447.234 65.58 443.274 61.74 440.394 56.88C437.574 52.02 436.164 46.56 436.164 40.5C436.164 34.44 437.574 28.98 440.394 24.12C443.274 19.26 447.234 15.45 452.274 12.69C457.374 9.87 463.044 8.46 469.284 8.46C475.524 8.46 481.134 9.84 486.114 12.6C491.154 15.36 495.114 19.2 497.994 24.12C500.874 28.98 502.314 34.44 502.314 40.5C502.314 46.56 500.874 52.05 497.994 56.97C495.114 61.83 491.154 65.64 486.114 68.4C481.134 71.16 475.524 72.54 469.284 72.54ZM469.284 66.6C474.264 66.6 478.764 65.49 482.784 63.27C486.804 60.99 489.954 57.87 492.234 53.91C494.514 49.89 495.654 45.42 495.654 40.5C495.654 35.58 494.514 31.14 492.234 27.18C489.954 23.16 486.804 20.04 482.784 17.82C478.764 15.54 474.264 14.4 469.284 14.4C464.304 14.4 459.774 15.54 455.694 17.82C451.674 20.04 448.494 23.16 446.154 27.18C443.874 31.14 442.734 35.58 442.734 40.5C442.734 45.42 443.874 49.89 446.154 53.91C448.494 57.87 451.674 60.99 455.694 63.27C459.774 65.49 464.304 66.6 469.284 66.6ZM553.962 8.46C561.522 8.46 567.432 10.71 571.692 15.21C576.012 19.71 578.172 26.13 578.172 34.47V72H571.512V34.65C571.512 27.99 569.862 22.95 566.562 19.53C563.262 16.11 558.642 14.4 552.702 14.4C546.462 14.4 541.602 16.23 538.122 19.89C534.642 23.49 532.902 28.92 532.902 36.18V72H526.242V9H532.632V19.62C536.652 12.18 543.762 8.46 553.962 8.46ZM652.137 64.8C649.557 67.26 646.107 69.18 641.787 70.56C637.527 71.88 632.787 72.54 627.567 72.54C622.047 72.54 617.337 71.79 613.437 70.29C609.597 68.79 606.687 66.72 604.707 64.08C602.787 61.44 601.827 58.41 601.827 54.99C601.827 51.21 602.937 48 605.157 45.36C607.437 42.72 610.407 40.89 614.067 39.87C611.067 38.73 608.727 36.93 607.047 34.47C605.367 31.95 604.527 29.01 604.527 25.65C604.527 22.47 605.427 19.59 607.227 17.01C609.087 14.37 611.847 12.3 615.507 10.8C619.227 9.24 623.697 8.46 628.917 8.46C632.757 8.46 636.477 8.91 640.077 9.81C643.737 10.65 646.857 11.88 649.437 13.5L647.367 18.81C641.847 15.69 635.787 14.13 629.187 14.13C623.367 14.13 618.897 15.24 615.777 17.46C612.717 19.68 611.187 22.56 611.187 26.1C611.187 29.64 612.417 32.37 614.877 34.29C617.397 36.21 620.937 37.17 625.497 37.17H641.157V42.93H625.227C620.067 42.93 615.987 43.92 612.987 45.9C609.987 47.82 608.487 50.7 608.487 54.54C608.487 58.32 610.107 61.32 613.347 63.54C616.647 65.76 621.477 66.87 627.837 66.87C632.277 66.87 636.417 66.24 640.257 64.98C644.097 63.72 647.217 61.98 649.617 59.76L652.137 64.8Z" fill="black"/>
<path d="M55.342 15.66L54.626 16.3582L54.6349 16.3671L55.342 15.66ZM62.452 72V73H63.452V72H62.452ZM55.882 72H54.882V73H55.882V72ZM55.882 53.46H56.882V52.46H55.882V53.46ZM16.282 53.46V52.46H15.282V53.46H16.282ZM16.282 72V73H17.282V72H16.282ZM9.80203 72H8.80203V73H9.80203V72ZM16.822 15.66L16.1105 14.9573L16.1104 14.9574L16.822 15.66ZM55.882 47.7V48.7H56.882V47.7H55.882ZM50.662 19.8L49.943 20.495L49.9489 20.501L50.662 19.8ZM21.502 19.8L22.2152 20.5011L22.221 20.495L21.502 19.8ZM16.282 47.7H15.282V48.7H16.282V47.7ZM36.082 9.46C44.0351 9.46 50.1739 11.7918 54.626 16.3581L56.058 14.9619C51.1502 9.92819 44.449 7.46 36.082 7.46V9.46ZM54.6349 16.3671C59.1302 20.8624 61.452 27.4416 61.452 36.27H63.452C63.452 27.0984 61.0339 19.9376 56.0491 14.9529L54.6349 16.3671ZM61.452 36.27V72H63.452V36.27H61.452ZM62.452 71H55.882V73H62.452V71ZM56.882 72V53.46H54.882V72H56.882ZM55.882 52.46H16.282V54.46H55.882V52.46ZM15.282 53.46V72H17.282V53.46H15.282ZM16.282 71H9.80203V73H16.282V71ZM10.802 72V36.27H8.80203V72H10.802ZM10.802 36.27C10.802 27.4382 13.0958 20.8574 17.5336 16.3626L16.1104 14.9574C11.1883 19.9426 8.80203 27.1018 8.80203 36.27H10.802ZM17.5336 16.3626C22.0488 11.7903 28.1919 9.46 36.082 9.46V7.46C27.7722 7.46 21.0753 9.92971 16.1105 14.9573L17.5336 16.3626ZM56.882 47.7V35.64H54.882V47.7H56.882ZM56.882 35.64C56.882 28.4673 55.1037 22.8918 51.3752 19.099L49.9489 20.501C53.1804 23.7882 54.882 28.7727 54.882 35.64H56.882ZM51.381 19.105C47.6684 15.2643 42.5222 13.4 36.082 13.4V15.4C42.1219 15.4 46.6957 17.1357 49.943 20.495L51.381 19.105ZM36.082 13.4C29.6419 13.4 24.4957 15.2643 20.783 19.105L22.221 20.495C25.4684 17.1357 30.0422 15.4 36.082 15.4V13.4ZM20.7889 19.099C17.0604 22.8918 15.282 28.4673 15.282 35.64H17.282C17.282 28.7727 18.9837 23.7882 22.2152 20.501L20.7889 19.099ZM15.282 35.64V47.7H17.282V35.64H15.282ZM16.282 48.7H55.882V46.7H16.282V48.7ZM95.2823 70.29L94.9502 71.2332L94.9543 71.2347L95.2823 70.29ZM85.3823 64.35L84.4911 63.8965L84.1704 64.5268L84.6578 65.0392L85.3823 64.35ZM87.9923 59.22L88.6995 58.5129L87.7256 57.539L87.1011 58.7665L87.9923 59.22ZM97.0823 64.8L96.7263 65.7346L96.7394 65.7394L97.0823 64.8ZM121.472 63.81L122.059 64.6203L122.07 64.612L121.472 63.81ZM123.362 49.68L122.655 50.3871L122.662 50.394L122.669 50.4008L123.362 49.68ZM117.782 46.26L117.428 47.1953L117.44 47.1995L117.451 47.2035L117.782 46.26ZM108.512 43.56L108.267 44.5295L108.277 44.5318L108.512 43.56ZM97.1723 40.14L96.7976 41.0671L96.8061 41.0706L96.8147 41.0739L97.1723 40.14ZM89.8823 35.01L89.1273 35.6657L89.1322 35.6713L89.1371 35.6768L89.8823 35.01ZM89.4323 17.1L90.2704 17.6457L90.276 17.6369L89.4323 17.1ZM97.1723 10.8L97.5814 11.7125L97.5814 11.7125L97.1723 10.8ZM120.662 9.99L120.377 10.9483L120.386 10.9512L120.396 10.954L120.662 9.99ZM129.662 14.04L130.583 14.4301L130.901 13.68L130.231 13.2171L129.662 14.04ZM127.412 19.35L126.862 20.185L127.865 20.8458L128.333 19.7401L127.412 19.35ZM118.952 15.48L118.665 16.4378L118.674 16.4405L118.683 16.443L118.952 15.48ZM97.6223 17.37L98.2279 18.1658L98.2304 18.1639L97.6223 17.37ZM95.7323 31.68L95.0115 32.3731L95.0251 32.3872L95.0392 32.4008L95.7323 31.68ZM101.492 35.19L101.147 36.1283L101.161 36.1337L101.176 36.1387L101.492 35.19ZM110.852 37.8L111.092 36.8291L111.091 36.829L110.852 37.8ZM122.012 41.22L121.638 42.1471L121.649 42.1519L121.661 42.1563L122.012 41.22ZM129.302 46.26L128.547 46.9157L128.556 46.9256L129.302 46.26ZM129.662 64.08L128.827 63.5297L128.824 63.5343L129.662 64.08ZM121.832 70.29L122.222 71.2108L122.229 71.208L122.236 71.2051L121.832 70.29ZM108.782 71.54C104.211 71.54 99.8224 70.8078 95.6104 69.3453L94.9543 71.2347C99.3823 72.7722 103.993 73.54 108.782 73.54V71.54ZM95.6145 69.3468C91.4564 67.8826 88.3081 65.9749 86.1069 63.6608L84.6578 65.0392C87.1366 67.6451 90.5883 69.6974 94.9502 71.2332L95.6145 69.3468ZM86.2736 64.8035L88.8836 59.6735L87.1011 58.7665L84.4911 63.8965L86.2736 64.8035ZM87.2852 59.9271C89.6869 62.3288 92.8471 64.2567 96.7263 65.7345L97.4383 63.8655C93.7576 62.4633 90.8578 60.6712 88.6995 58.5129L87.2852 59.9271ZM96.7394 65.7394C100.629 67.1594 104.645 67.87 108.782 67.87V65.87C104.879 65.87 101.096 65.2006 97.4253 63.8606L96.7394 65.7394ZM108.782 67.87C114.513 67.87 118.991 66.839 122.058 64.6202L120.886 62.9998C118.313 64.861 114.332 65.87 108.782 65.87V67.87ZM122.07 64.612C125.124 62.3377 126.702 59.3493 126.702 55.71H124.702C124.702 58.6707 123.461 61.0823 120.875 63.008L122.07 64.612ZM126.702 55.71C126.702 52.9666 125.844 50.6789 124.055 48.9592L122.669 50.4008C124.001 51.6811 124.702 53.4134 124.702 55.71H126.702ZM124.069 48.9729C122.452 47.3559 120.46 46.1407 118.114 45.3165L117.451 47.2035C119.545 47.9393 121.272 49.0041 122.655 50.3871L124.069 48.9729ZM118.136 45.3247C115.86 44.4634 112.724 43.5521 108.748 42.5881L108.277 44.5318C112.221 45.4879 115.265 46.3766 117.428 47.1953L118.136 45.3247ZM108.758 42.5906C104.036 41.3951 100.298 40.2662 97.53 39.2061L96.8147 41.0739C99.6867 42.1738 103.509 43.3249 108.267 44.5294L108.758 42.5906ZM97.5471 39.2129C94.8698 38.1305 92.5662 36.5099 90.6276 34.3432L89.1371 35.6768C91.2784 38.0701 93.8349 39.8695 96.7976 41.0671L97.5471 39.2129ZM90.6374 34.3543C88.8568 32.304 87.9123 29.4709 87.9123 25.74H85.9123C85.9123 29.8091 86.9478 33.156 89.1273 35.6657L90.6374 34.3543ZM87.9123 25.74C87.9123 22.747 88.6997 20.0578 90.2703 17.6457L88.5943 16.5543C86.805 19.3022 85.9123 22.373 85.9123 25.74H87.9123ZM90.276 17.6369C91.83 15.1949 94.2405 13.2101 97.5814 11.7125L96.7633 9.88749C93.1442 11.5098 90.3947 13.7251 88.5887 16.5631L90.276 17.6369ZM97.5814 11.7125C100.896 10.2267 105.066 9.46 110.132 9.46V7.46C104.878 7.46 100.409 8.25327 96.7633 9.88749L97.5814 11.7125ZM110.132 9.46C113.636 9.46 117.05 9.95619 120.377 10.9483L120.948 9.03171C117.435 7.9838 113.828 7.46 110.132 7.46V9.46ZM120.396 10.954C123.787 11.8894 126.681 13.1967 129.094 14.8629L130.231 13.2171C127.604 11.4032 124.497 10.0106 120.928 9.02601L120.396 10.954ZM128.742 13.6498L126.492 18.9598L128.333 19.7401L130.583 14.4301L128.742 13.6498ZM127.963 18.515C125.238 16.719 122.323 15.3853 119.222 14.517L118.683 16.443C121.582 17.2546 124.307 18.501 126.862 20.185L127.963 18.515ZM119.24 14.5222C116.155 13.5966 113.118 13.13 110.132 13.13V15.13C112.907 15.13 115.75 15.5634 118.665 16.4378L119.24 14.5222ZM110.132 13.13C104.507 13.13 100.082 14.2265 97.0143 16.5761L98.2304 18.1639C100.803 16.1935 104.718 15.13 110.132 15.13V13.13ZM97.0168 16.5742C94.0176 18.8562 92.4823 21.8761 92.4823 25.56H94.4823C94.4823 22.5239 95.7071 20.0838 98.2279 18.1658L97.0168 16.5742ZM92.4823 25.56C92.4823 28.2928 93.3031 30.5963 95.0115 32.3731L96.4532 30.9869C95.1616 29.6437 94.4823 27.8672 94.4823 25.56H92.4823ZM95.0392 32.4008C96.7103 34.0076 98.753 35.2465 101.147 36.1283L101.838 34.2517C99.6717 33.4535 97.8744 32.3524 96.4255 30.9592L95.0392 32.4008ZM101.176 36.1387C103.552 36.9307 106.701 37.808 110.613 38.771L111.091 36.829C107.203 35.872 104.112 35.0093 101.809 34.2413L101.176 36.1387ZM110.613 38.7709C115.209 39.9051 118.879 41.0319 121.638 42.1471L122.387 40.2929C119.506 39.1281 115.735 37.9749 111.092 36.8291L110.613 38.7709ZM121.661 42.1563C124.388 43.179 126.679 44.7638 128.547 46.9157L130.057 45.6043C127.966 43.1962 125.396 41.421 122.363 40.2837L121.661 42.1563ZM128.556 46.9256C130.33 48.9142 131.272 51.6821 131.272 55.35H133.272C133.272 51.3379 132.235 48.0458 130.049 45.5944L128.556 46.9256ZM131.272 55.35C131.272 58.3356 130.459 61.054 128.827 63.5297L130.497 64.6303C132.346 61.826 133.272 58.7244 133.272 55.35H131.272ZM128.824 63.5343C127.275 65.9144 124.837 67.8732 121.429 69.3749L122.236 71.2051C125.908 69.5868 128.69 67.4056 130.5 64.6257L128.824 63.5343ZM121.442 69.3692C118.06 70.8024 113.852 71.54 108.782 71.54V73.54C114.033 73.54 118.525 72.7776 122.222 71.2108L121.442 69.3692ZM194.772 20.61L194.269 21.4741L195.216 22.0259L195.679 21.032L194.772 20.61ZM174.252 14.4L174.324 13.4026L173.252 13.3254V14.4H174.252ZM174.252 72V73H175.252V72H174.252ZM167.592 72H166.592V73H167.592V72ZM167.592 14.4H168.592V13.3328L167.528 13.4021L167.592 14.4ZM146.982 20.61L146.076 21.032L146.536 22.0206L147.481 21.4767L146.982 20.61ZM144.552 15.39L144.043 14.5296L143.264 14.9911L143.646 15.812L144.552 15.39ZM197.202 15.39L198.109 15.812L198.489 14.9967L197.718 14.5331L197.202 15.39ZM195.276 19.7459C188.957 16.0652 181.968 13.953 174.324 13.4026L174.181 15.3974C181.536 15.927 188.228 17.9548 194.269 21.4741L195.276 19.7459ZM173.252 14.4V72H175.252V14.4H173.252ZM174.252 71H167.592V73H174.252V71ZM168.592 72V14.4H166.592V72H168.592ZM167.528 13.4021C159.996 13.892 152.977 16.0063 146.484 19.7433L147.481 21.4767C153.707 17.8937 160.429 15.868 167.657 15.3979L167.528 13.4021ZM147.889 20.188L145.459 14.968L143.646 15.812L146.076 21.032L147.889 20.188ZM145.062 16.2504C152.697 11.7284 161.278 9.46 170.832 9.46V7.46C160.947 7.46 152.008 9.81161 144.043 14.5296L145.062 16.2504ZM170.832 9.46C180.57 9.46 189.179 11.7301 196.687 16.2469L197.718 14.5331C189.866 9.80987 180.894 7.46 170.832 7.46V9.46ZM196.296 14.968L193.866 20.188L195.679 21.032L198.109 15.812L196.296 14.968ZM259.307 72L258.492 72.5795L258.791 73H259.307V72ZM244.907 51.75L245.722 51.1705L245.381 50.6912L244.797 50.7561L244.907 51.75ZM222.947 52.02V51.02H221.947V52.02H222.947ZM222.947 72V73H223.947V72H222.947ZM216.287 72H215.287V73H216.287V72ZM216.287 9V8H215.287V9H216.287ZM258.767 14.76L258.123 15.5249L258.123 15.5249L258.767 14.76ZM261.827 43.11L261.022 42.5168L261.02 42.5193L261.827 43.11ZM251.207 50.4L250.899 49.4489L249.602 49.8699L250.393 50.9803L251.207 50.4ZM266.597 72V73H268.538L267.412 71.4197L266.597 72ZM253.997 42.21L254.639 42.9771L254.639 42.9771L253.997 42.21ZM253.997 18.9L253.356 19.6671L253.364 19.674L253.997 18.9ZM222.947 14.76V13.76H221.947V14.76H222.947ZM222.947 46.35H221.947V47.35H222.947V46.35ZM260.122 71.4205L245.722 51.1705L244.092 52.3295L258.492 72.5795L260.122 71.4205ZM244.797 50.7561C243.216 50.9318 241.573 51.02 239.867 51.02V53.02C241.642 53.02 243.359 52.9282 245.018 52.7439L244.797 50.7561ZM239.867 51.02H222.947V53.02H239.867V51.02ZM221.947 52.02V72H223.947V52.02H221.947ZM222.947 71H216.287V73H222.947V71ZM217.287 72V9H215.287V72H217.287ZM216.287 10H239.867V8H216.287V10ZM239.867 10C247.754 10 253.798 11.8825 258.123 15.5249L259.411 13.9951C254.617 9.95746 248.061 8 239.867 8V10ZM258.123 15.5249C262.427 19.1493 264.607 24.1328 264.607 30.6H266.607C266.607 23.6272 264.227 18.0507 259.411 13.9951L258.123 15.5249ZM264.607 30.6C264.607 35.3416 263.396 39.2949 261.022 42.5168L262.632 43.7032C265.298 40.0851 266.607 35.6984 266.607 30.6H264.607ZM261.02 42.5193C258.704 45.6828 255.353 48.0026 250.899 49.4489L251.516 51.3511C256.302 49.7974 260.03 47.2572 262.634 43.7007L261.02 42.5193ZM250.393 50.9803L265.783 72.5803L267.412 71.4197L252.022 49.8197L250.393 50.9803ZM266.597 71H259.307V73H266.597V71ZM239.687 47.35C246.059 47.35 251.093 45.9426 254.639 42.9771L253.356 41.4429C250.302 43.9974 245.796 45.35 239.687 45.35V47.35ZM254.639 42.9771C258.203 39.996 259.947 35.8241 259.947 30.6H257.947C257.947 35.3359 256.392 38.904 253.356 41.4429L254.639 42.9771ZM259.947 30.6C259.947 25.2652 258.209 21.0537 254.631 18.126L253.364 19.674C256.386 22.1463 257.947 25.7348 257.947 30.6H259.947ZM254.639 18.1329C251.093 15.1674 246.059 13.76 239.687 13.76V15.76C245.796 15.76 250.302 17.1126 253.356 19.6671L254.639 18.1329ZM239.687 13.76H222.947V15.76H239.687V13.76ZM221.947 14.76V46.35H223.947V14.76H221.947ZM222.947 47.35H239.687V45.35H222.947V47.35ZM300.856 68.4L300.368 69.2728L300.38 69.2795L300.856 68.4ZM288.976 56.88L288.111 57.3819L288.116 57.3898L288.976 56.88ZM288.976 24.12L288.116 23.6102L288.111 23.6181L288.976 24.12ZM300.856 12.69L301.337 13.5671L301.34 13.5651L300.856 12.69ZM334.696 12.6L334.212 13.4747L334.216 13.4771L334.696 12.6ZM346.576 24.12L345.713 24.6252L345.716 24.6298L346.576 24.12ZM346.576 56.97L347.437 57.4798L347.439 57.4752L346.576 56.97ZM334.696 68.4L334.216 67.5229L334.212 67.5253L334.696 68.4ZM331.366 63.27L331.85 64.1454L331.86 64.1398L331.366 63.27ZM340.816 53.91L341.683 54.409L341.686 54.4033L340.816 53.91ZM340.816 27.18L339.947 27.6733L339.95 27.679L340.816 27.18ZM331.366 17.82L330.873 18.6899L330.883 18.6954L331.366 17.82ZM304.276 17.82L304.76 18.6954L304.764 18.6929L304.276 17.82ZM294.736 27.18L293.872 26.6769L293.87 26.681L294.736 27.18ZM294.736 53.91L293.867 54.4033L293.871 54.4111L293.875 54.4187L294.736 53.91ZM304.276 63.27L303.783 64.1398L303.791 64.1442L303.798 64.1484L304.276 63.27ZM317.866 71.54C311.78 71.54 306.275 70.1955 301.332 67.5205L300.38 69.2795C305.638 72.1245 311.473 73.54 317.866 73.54V71.54ZM301.345 67.5273C296.455 64.7914 292.625 61.0751 289.837 56.3702L288.116 57.3898C291.088 62.4049 295.178 66.3686 300.368 69.2727L301.345 67.5273ZM289.841 56.3781C287.117 51.6825 285.746 46.398 285.746 40.5H283.746C283.746 46.722 285.196 52.3575 288.111 57.3819L289.841 56.3781ZM285.746 40.5C285.746 34.602 287.117 29.3175 289.841 24.6219L288.111 23.6181C285.196 28.6425 283.746 34.278 283.746 40.5H285.746ZM289.837 24.6298C292.624 19.9269 296.451 16.2425 301.337 13.5671L300.376 11.8129C295.182 14.6575 291.089 18.5931 288.116 23.6102L289.837 24.6298ZM301.34 13.5651C306.282 10.8328 311.783 9.46 317.866 9.46V7.46C311.469 7.46 305.631 8.90719 300.373 11.8149L301.34 13.5651ZM317.866 9.46C323.953 9.46 329.394 10.8046 334.212 13.4747L335.181 11.7253C330.039 8.87541 324.259 7.46 317.866 7.46V9.46ZM334.216 13.4771C339.099 16.1508 342.926 19.8628 345.713 24.6252L347.439 23.6148C344.467 18.5372 340.374 14.5692 335.177 11.7229L334.216 13.4771ZM345.716 24.6298C348.498 29.3242 349.896 34.6059 349.896 40.5H351.896C351.896 34.2741 350.415 28.6358 347.437 23.6102L345.716 24.6298ZM349.896 40.5C349.896 46.394 348.498 51.7078 345.713 56.4648L347.439 57.4752C350.415 52.3922 351.896 46.726 351.896 40.5H349.896ZM345.716 56.4602C342.929 61.1631 339.102 64.8475 334.216 67.5229L335.177 69.2771C340.371 66.4325 344.464 62.4969 347.437 57.4798L345.716 56.4602ZM334.212 67.5253C329.394 70.1954 323.953 71.54 317.866 71.54V73.54C324.259 73.54 330.039 72.1246 335.181 69.2747L334.212 67.5253ZM317.866 67.6C323.001 67.6 327.669 66.4539 331.85 64.1454L330.883 62.3946C327.023 64.5261 322.692 65.6 317.866 65.6V67.6ZM331.86 64.1398C336.033 61.7728 339.313 58.5255 341.683 54.409L339.95 53.411C337.76 57.2145 334.74 60.2072 330.873 62.4002L331.86 64.1398ZM341.686 54.4033C344.057 50.2232 345.236 45.5814 345.236 40.5H343.236C343.236 45.2586 342.136 49.5568 339.947 53.4167L341.686 54.4033ZM345.236 40.5C345.236 35.4187 344.057 30.8044 341.683 26.681L339.95 27.679C342.136 31.4756 343.236 35.7413 343.236 40.5H345.236ZM341.686 26.6867C339.316 22.5072 336.033 19.2545 331.85 16.9446L330.883 18.6954C334.74 20.8255 337.757 23.8128 339.947 27.6733L341.686 26.6867ZM331.86 16.9502C327.678 14.5783 323.006 13.4 317.866 13.4V15.4C322.687 15.4 327.015 16.5017 330.873 18.6898L331.86 16.9502ZM317.866 13.4C312.727 13.4 308.027 14.5783 303.789 16.9471L304.764 18.6929C308.685 16.5017 313.046 15.4 317.866 15.4V13.4ZM303.793 16.9446C299.613 19.2532 296.302 22.5028 293.872 26.6769L295.601 27.6831C297.851 23.8172 300.9 20.8268 304.76 18.6954L303.793 16.9446ZM293.87 26.681C291.496 30.8044 290.316 35.4187 290.316 40.5H292.316C292.316 35.7413 293.417 31.4756 295.603 27.679L293.87 26.681ZM290.316 40.5C290.316 45.5814 291.496 50.2232 293.867 54.4033L295.606 53.4167C293.417 49.5568 292.316 45.2586 292.316 40.5H290.316ZM293.875 54.4187C296.305 58.5299 299.612 61.7741 303.783 64.1398L304.77 62.4002C300.901 60.2059 297.848 57.2101 295.597 53.4013L293.875 54.4187ZM303.798 64.1484C308.036 66.4539 312.732 67.6 317.866 67.6V65.6C313.041 65.6 308.677 64.5261 304.754 62.3916L303.798 64.1484ZM419.933 66.24H420.933V65.24H419.933V66.24ZM419.933 72V73H420.933V72H419.933ZM368.273 72H367.273V73H368.273V72ZM368.273 67.77L367.487 67.1529L367.273 67.4247V67.77H368.273ZM387.893 42.75L388.68 43.3671L389.948 41.75H387.893V42.75ZM373.943 42.75H372.943V43.75H373.943V42.75ZM373.943 37.17V36.17H372.943V37.17H373.943ZM392.213 37.17V38.17H392.7L393.001 37.7866L392.213 37.17ZM409.763 14.76L410.551 15.3766L411.817 13.76H409.763V14.76ZM368.543 14.76H367.543V15.76H368.543V14.76ZM368.543 9V8H367.543V9H368.543ZM418.583 9H419.583V8H418.583V9ZM418.583 13.14L419.372 13.755L419.583 13.4838V13.14H418.583ZM399.773 37.26L398.985 36.645L397.725 38.26H399.773V37.26ZM412.823 37.26H413.823V36.26H412.823V37.26ZM412.823 42.84V43.84H413.823V42.84H412.823ZM395.453 42.84V41.84H394.966L394.665 42.2246L395.453 42.84ZM377.183 66.24L376.395 65.6246L375.134 67.24H377.183V66.24ZM418.933 66.24V72H420.933V66.24H418.933ZM419.933 71H368.273V73H419.933V71ZM369.273 72V67.77H367.273V72H369.273ZM369.06 68.3871L388.68 43.3671L387.107 42.1329L367.487 67.1529L369.06 68.3871ZM387.893 41.75H373.943V43.75H387.893V41.75ZM374.943 42.75V37.17H372.943V42.75H374.943ZM373.943 38.17H392.213V36.17H373.943V38.17ZM393.001 37.7866L410.551 15.3766L408.976 14.1434L391.426 36.5534L393.001 37.7866ZM409.763 13.76H368.543V15.76H409.763V13.76ZM369.543 14.76V9H367.543V14.76H369.543ZM368.543 10H418.583V8H368.543V10ZM417.583 9V13.14H419.583V9H417.583ZM417.795 12.525L398.985 36.645L400.562 37.875L419.372 13.755L417.795 12.525ZM399.773 38.26H412.823V36.26H399.773V38.26ZM411.823 37.26V42.84H413.823V37.26H411.823ZM412.823 41.84H395.453V43.84H412.823V41.84ZM394.665 42.2246L376.395 65.6246L377.972 66.8554L396.242 43.4554L394.665 42.2246ZM377.183 67.24H419.933V65.24H377.183V67.24ZM452.274 68.4L451.786 69.2728L451.798 69.2795L452.274 68.4ZM440.394 56.88L439.529 57.3819L439.534 57.3898L440.394 56.88ZM440.394 24.12L439.534 23.6102L439.529 23.6181L440.394 24.12ZM452.274 12.69L452.755 13.5671L452.758 13.5651L452.274 12.69ZM486.114 12.6L485.63 13.4747L485.634 13.4771L486.114 12.6ZM497.994 24.12L497.131 24.6252L497.134 24.6298L497.994 24.12ZM497.994 56.97L498.855 57.4798L498.857 57.4752L497.994 56.97ZM486.114 68.4L485.634 67.5229L485.63 67.5253L486.114 68.4ZM482.784 63.27L483.268 64.1454L483.278 64.1398L482.784 63.27ZM492.234 53.91L493.101 54.409L493.104 54.4033L492.234 53.91ZM492.234 27.18L491.365 27.6733L491.368 27.679L492.234 27.18ZM482.784 17.82L482.291 18.6899L482.301 18.6954L482.784 17.82ZM455.694 17.82L456.178 18.6954L456.182 18.6929L455.694 17.82ZM446.154 27.18L445.29 26.6769L445.288 26.681L446.154 27.18ZM446.154 53.91L445.285 54.4033L445.289 54.4111L445.293 54.4187L446.154 53.91ZM455.694 63.27L455.201 64.1398L455.209 64.1442L455.216 64.1484L455.694 63.27ZM469.284 71.54C463.198 71.54 457.693 70.1955 452.75 67.5205L451.798 69.2795C457.056 72.1245 462.891 73.54 469.284 73.54V71.54ZM452.763 67.5273C447.873 64.7914 444.043 61.0751 441.255 56.3702L439.534 57.3898C442.506 62.4049 446.596 66.3686 451.786 69.2727L452.763 67.5273ZM441.259 56.3781C438.535 51.6825 437.164 46.398 437.164 40.5H435.164C435.164 46.722 436.614 52.3575 439.529 57.3819L441.259 56.3781ZM437.164 40.5C437.164 34.602 438.535 29.3175 441.259 24.6219L439.529 23.6181C436.614 28.6425 435.164 34.278 435.164 40.5H437.164ZM441.255 24.6298C444.042 19.9269 447.869 16.2425 452.755 13.5671L451.794 11.8129C446.6 14.6575 442.507 18.5931 439.534 23.6102L441.255 24.6298ZM452.758 13.5651C457.7 10.8328 463.201 9.46 469.284 9.46V7.46C462.887 7.46 457.049 8.90719 451.79 11.8149L452.758 13.5651ZM469.284 9.46C475.371 9.46 480.812 10.8046 485.63 13.4747L486.599 11.7253C481.457 8.87541 475.677 7.46 469.284 7.46V9.46ZM485.634 13.4771C490.516 16.1508 494.344 19.8628 497.131 24.6252L498.857 23.6148C495.885 18.5372 491.792 14.5692 486.595 11.7229L485.634 13.4771ZM497.134 24.6298C499.916 29.3242 501.314 34.6059 501.314 40.5H503.314C503.314 34.2741 501.833 28.6358 498.855 23.6102L497.134 24.6298ZM501.314 40.5C501.314 46.394 499.916 51.7078 497.131 56.4648L498.857 57.4752C501.833 52.3922 503.314 46.726 503.314 40.5H501.314ZM497.134 56.4602C494.347 61.1631 490.52 64.8475 485.634 67.5229L486.595 69.2771C491.789 66.4325 495.882 62.4969 498.855 57.4798L497.134 56.4602ZM485.63 67.5253C480.812 70.1954 475.371 71.54 469.284 71.54V73.54C475.677 73.54 481.457 72.1246 486.599 69.2747L485.63 67.5253ZM469.284 67.6C474.419 67.6 479.087 66.4539 483.268 64.1454L482.301 62.3946C478.441 64.5261 474.11 65.6 469.284 65.6V67.6ZM483.278 64.1398C487.451 61.7728 490.731 58.5255 493.101 54.409L491.368 53.411C489.178 57.2145 486.158 60.2072 482.291 62.4002L483.278 64.1398ZM493.104 54.4033C495.475 50.2232 496.654 45.5814 496.654 40.5H494.654C494.654 45.2586 493.554 49.5568 491.365 53.4167L493.104 54.4033ZM496.654 40.5C496.654 35.4187 495.475 30.8044 493.101 26.681L491.368 27.679C493.554 31.4756 494.654 35.7413 494.654 40.5H496.654ZM493.104 26.6867C490.734 22.5072 487.45 19.2545 483.268 16.9446L482.301 18.6954C486.158 20.8255 489.175 23.8128 491.365 27.6733L493.104 26.6867ZM483.278 16.9502C479.096 14.5783 474.423 13.4 469.284 13.4V15.4C474.105 15.4 478.433 16.5017 482.291 18.6898L483.278 16.9502ZM469.284 13.4C464.145 13.4 459.445 14.5783 455.207 16.9471L456.182 18.6929C460.103 16.5017 464.464 15.4 469.284 15.4V13.4ZM455.211 16.9446C451.031 19.2532 447.72 22.5028 445.29 26.6769L447.019 27.6831C449.269 23.8172 452.318 20.8268 456.178 18.6954L455.211 16.9446ZM445.288 26.681C442.914 30.8044 441.734 35.4187 441.734 40.5H443.734C443.734 35.7413 444.835 31.4756 447.021 27.679L445.288 26.681ZM441.734 40.5C441.734 45.5814 442.914 50.2232 445.285 54.4033L447.024 53.4167C444.835 49.5568 443.734 45.2586 443.734 40.5H441.734ZM445.293 54.4187C447.723 58.5299 451.03 61.7741 455.201 64.1398L456.188 62.4002C452.319 60.2059 449.266 57.2101 447.015 53.4013L445.293 54.4187ZM455.216 64.1484C459.454 66.4539 464.15 67.6 469.284 67.6V65.6C464.459 65.6 460.095 64.5261 456.172 62.3916L455.216 64.1484ZM571.692 15.21L570.966 15.8975L570.971 15.9025L571.692 15.21ZM578.172 72V73H579.172V72H578.172ZM571.512 72H570.512V73H571.512V72ZM566.562 19.53L565.843 20.2244L565.843 20.2244L566.562 19.53ZM538.122 19.89L538.841 20.585L538.847 20.5791L538.122 19.89ZM532.902 72V73H533.902V72H532.902ZM526.242 72H525.242V73H526.242V72ZM526.242 9V8H525.242V9H526.242ZM532.632 9H533.632V8H532.632V9ZM532.632 19.62H531.632L533.512 20.0954L532.632 19.62ZM553.962 9.46C561.313 9.46 566.935 11.6397 570.966 15.8975L572.419 14.5225C567.929 9.78032 561.732 7.46 553.962 7.46V9.46ZM570.971 15.9025C575.059 20.1606 577.172 26.2989 577.172 34.47H579.172C579.172 25.9611 576.966 19.2594 572.414 14.5175L570.971 15.9025ZM577.172 34.47V72H579.172V34.47H577.172ZM578.172 71H571.512V73H578.172V71ZM572.512 72V34.65H570.512V72H572.512ZM572.512 34.65C572.512 27.8359 570.824 22.5059 567.282 18.8356L565.843 20.2244C568.901 23.3941 570.512 28.1441 570.512 34.65H572.512ZM567.282 18.8356C563.749 15.1739 558.842 13.4 552.702 13.4V15.4C558.443 15.4 562.776 17.0461 565.843 20.2244L567.282 18.8356ZM552.702 13.4C546.257 13.4 541.109 15.2974 537.398 19.2009L538.847 20.5791C542.096 17.1626 546.667 15.4 552.702 15.4V13.4ZM537.403 19.195C533.676 23.051 531.902 28.7769 531.902 36.18H533.902C533.902 29.0631 535.609 23.929 538.841 20.585L537.403 19.195ZM531.902 36.18V72H533.902V36.18H531.902ZM532.902 71H526.242V73H532.902V71ZM527.242 72V9H525.242V72H527.242ZM526.242 10H532.632V8H526.242V10ZM531.632 9V19.62H533.632V9H531.632ZM533.512 20.0954C537.318 13.051 544.039 9.46 553.962 9.46V7.46C543.485 7.46 535.986 11.309 531.753 19.1446L533.512 20.0954ZM652.137 64.8L652.827 65.5237L653.362 65.0138L653.031 64.3528L652.137 64.8ZM641.787 70.56L642.083 71.5152L642.091 71.5126L641.787 70.56ZM613.437 70.29L613.073 71.2215L613.078 71.2233L613.437 70.29ZM604.707 64.08L603.898 64.6682L603.903 64.6741L603.907 64.68L604.707 64.08ZM605.157 45.36L604.4 44.7063L604.392 44.7164L605.157 45.36ZM614.067 39.87L614.335 40.8333L617.267 40.0163L614.422 38.9352L614.067 39.87ZM607.047 34.47L606.215 35.0247L606.221 35.034L607.047 34.47ZM607.227 17.01L606.409 16.434L606.407 16.4378L607.227 17.01ZM615.507 10.8L615.886 11.7253L615.894 11.7222L615.507 10.8ZM640.077 9.81L639.834 10.7801L639.844 10.7825L639.853 10.7847L640.077 9.81ZM649.437 13.5L650.369 13.8632L650.669 13.0928L649.969 12.6531L649.437 13.5ZM647.367 18.81L646.875 19.6806L647.88 20.2484L648.299 19.1732L647.367 18.81ZM615.777 17.46L615.197 16.6452L615.19 16.6506L615.777 17.46ZM614.877 34.29L614.262 35.0784L614.271 35.0854L614.877 34.29ZM641.157 37.17H642.157V36.17H641.157V37.17ZM641.157 42.93V43.93H642.157V42.93H641.157ZM612.987 45.9L613.526 46.7424L613.538 46.7346L612.987 45.9ZM613.347 63.54L612.782 64.365L612.789 64.3697L613.347 63.54ZM640.257 64.98L640.569 65.9302L640.569 65.9302L640.257 64.98ZM649.617 59.76L650.511 59.3128L649.916 58.1214L648.938 59.0259L649.617 59.76ZM651.447 64.0763C649.002 66.4073 645.696 68.2613 641.483 69.6074L642.091 71.5126C646.517 70.0987 650.112 68.1127 652.827 65.5237L651.447 64.0763ZM641.491 69.6048C637.342 70.8905 632.703 71.54 627.567 71.54V73.54C632.871 73.54 637.712 72.8695 642.083 71.5152L641.491 69.6048ZM627.567 71.54C622.132 71.54 617.551 70.801 613.796 69.3567L613.078 71.2233C617.123 72.779 621.961 73.54 627.567 73.54V71.54ZM613.801 69.3585C610.091 67.9095 607.35 65.938 605.507 63.48L603.907 64.68C606.023 67.502 609.103 69.6705 613.073 71.2215L613.801 69.3585ZM605.516 63.4918C603.726 61.0312 602.827 58.2094 602.827 54.99H600.827C600.827 58.6106 601.848 61.8488 603.898 64.6682L605.516 63.4918ZM602.827 54.99C602.827 51.4213 603.869 48.4457 605.922 46.0036L604.392 44.7164C602.005 47.5543 600.827 50.9987 600.827 54.99H602.827ZM605.914 46.0136C608.054 43.536 610.847 41.8053 614.335 40.8333L613.798 38.9067C609.966 39.9747 606.82 41.904 604.4 44.7064L605.914 46.0136ZM614.422 38.9352C611.598 37.8619 609.428 36.184 607.873 33.906L606.221 35.034C608.025 37.676 610.536 39.5981 613.712 40.8048L614.422 38.9352ZM607.879 33.9153C606.32 31.5773 605.527 28.835 605.527 25.65H603.527C603.527 29.185 604.414 32.3227 606.215 35.0247L607.879 33.9153ZM605.527 25.65C605.527 22.6723 606.366 19.9924 608.047 17.5822L606.407 16.4378C604.488 19.1876 603.527 22.2677 603.527 25.65H605.527ZM608.044 17.586C609.772 15.1336 612.363 13.1693 615.886 11.7253L615.128 9.87469C611.331 11.4307 608.402 13.6064 606.409 16.434L608.044 17.586ZM615.894 11.7222C619.461 10.2262 623.792 9.46 628.917 9.46V7.46C623.601 7.46 618.993 8.25376 615.12 9.87781L615.894 11.7222ZM628.917 9.46C632.678 9.46 636.316 9.90065 639.834 10.7801L640.319 8.83985C636.637 7.91934 632.836 7.46 628.917 7.46V9.46ZM639.853 10.7847C643.429 11.6052 646.439 12.7984 648.905 14.3469L649.969 12.6531C647.275 10.9616 644.045 9.69477 640.301 8.83534L639.853 10.7847ZM648.505 13.1368L646.435 18.4468L648.299 19.1732L650.369 13.8632L648.505 13.1368ZM647.859 17.9394C642.183 14.731 635.952 13.13 629.187 13.13V15.13C635.622 15.13 641.511 16.6489 646.875 19.6806L647.859 17.9394ZM629.187 13.13C623.261 13.13 618.554 14.2569 615.197 16.6452L616.357 18.2748C619.24 16.2231 623.473 15.13 629.187 15.13V13.13ZM615.19 16.6506C611.891 19.0437 610.187 22.215 610.187 26.1H612.187C612.187 22.905 613.543 20.3163 616.364 18.2694L615.19 16.6506ZM610.187 26.1C610.187 29.901 611.524 32.9417 614.262 35.0783L615.492 33.5017C613.31 31.7983 612.187 29.379 612.187 26.1H610.187ZM614.271 35.0854C617.027 37.1852 620.811 38.17 625.497 38.17V36.17C621.063 36.17 617.767 35.2348 615.483 33.4946L614.271 35.0854ZM625.497 38.17H641.157V36.17H625.497V38.17ZM640.157 37.17V42.93H642.157V37.17H640.157ZM641.157 41.93H625.227V43.93H641.157V41.93ZM625.227 41.93C619.952 41.93 615.656 42.9401 612.436 45.0654L613.538 46.7346C616.318 44.8999 620.181 43.93 625.227 43.93V41.93ZM612.448 45.0577C609.135 47.1781 607.487 50.3909 607.487 54.54H609.487C609.487 51.0091 610.839 48.4619 613.526 46.7423L612.448 45.0577ZM607.487 54.54C607.487 58.6649 609.282 61.9672 612.782 64.3649L613.912 62.7151C610.932 60.6728 609.487 57.9751 609.487 54.54H607.487ZM612.789 64.3697C616.326 66.749 621.387 67.87 627.837 67.87V65.87C621.567 65.87 616.968 64.771 613.905 62.7103L612.789 64.3697ZM627.837 67.87C632.372 67.87 636.619 67.2263 640.569 65.9302L639.945 64.0298C636.215 65.2537 632.181 65.87 627.837 65.87V67.87ZM640.569 65.9302C644.514 64.6357 647.769 62.8319 650.296 60.4941L648.938 59.0259C646.665 61.1281 643.68 62.8043 639.945 64.0298L640.569 65.9302ZM648.723 60.2072L651.243 65.2472L653.031 64.3528L650.511 59.3128L648.723 60.2072Z" fill="white"/>
<path d="M318 5C298.67 5 283 20.67 283 40C283 59.33 298.67 75 318 75C337.33 75 353 59.33 353 40C353 20.67 337.33 5 318 5Z" fill="black"/>
<path d="M283.25 40C283.25 20.8081 298.808 5.25 318 5.25C337.192 5.25 352.75 20.8081 352.75 40C352.75 59.1919 337.192 74.75 318 74.75C298.808 74.75 283.25 59.1919 283.25 40ZM289.027 40.265C289.027 56.2662 301.999 69.2379 318 69.2379C334.001 69.2379 346.973 56.2664 346.973 40.265C346.973 24.2635 334.001 11.2919 318 11.2919C301.999 11.2919 289.027 24.2637 289.027 40.265Z" fill="#7EC9C5" stroke="black" stroke-width="0.5"/>
<path d="M299.661 39.8992L291.994 51.9521H344.006L317.804 11.8436L299.661 39.8992ZM299.661 39.8992L291.994 27.8462H344.006L317.804 68.743L299.661 39.8992Z" stroke="white"/>
<path d="M318.43 30.2651L326.562 38.2466L318.43 30.2651ZM318.43 30.2651C318.43 30.2651 318.43 30.2651 318.43 30.265M318.43 30.2651L318.43 30.265M318.43 30.265C317.872 29.718 316.955 29.718 316.397 30.265L318.43 30.265ZM316.516 30.3315L308.386 38.3117C308.385 38.3117 308.385 38.3118 308.385 38.3119C308.385 38.312 308.385 38.312 308.385 38.3121C307.878 38.8099 307.878 39.6259 308.385 40.1237C308.385 40.1238 308.385 40.1238 308.385 40.1239C308.385 40.124 308.385 40.1241 308.386 40.1241L316.516 48.1043C316.516 48.1045 316.517 48.1046 316.517 48.1048C317.014 48.5933 317.813 48.5933 318.31 48.1048L318.309 48.1053L316.516 30.3315ZM316.516 30.3315C316.517 30.3312 316.517 30.331 316.517 30.3308M316.516 30.3315L316.517 30.3308M326.441 40.1241C326.949 39.6262 326.949 38.8096 326.441 38.3117M326.441 40.1241V38.3117M326.441 40.1241L318.31 48.1043L326.441 40.1241ZM326.441 38.3117L326.442 38.3121L325.741 39.0258L326.441 38.3117ZM326.441 38.3117L318.311 30.3324L326.441 38.3117ZM316.517 30.3305C316.769 30.0833 317.096 29.9647 317.413 29.9647C317.73 29.9647 318.058 30.083 318.31 30.3309L318.309 30.3305H316.517ZM316.517 30.3305C316.517 30.3306 316.517 30.3307 316.517 30.3308M316.517 30.3305L316.517 30.3308M308.265 38.2466L316.397 30.2651L308.265 40.189C307.718 39.652 307.718 38.7837 308.265 38.2466C308.265 38.2466 308.265 38.2466 308.265 38.2466ZM316.397 48.1705L308.265 40.1891L326.562 38.2466C327.109 38.7837 327.109 39.652 326.562 40.189C326.562 40.1891 326.562 40.1891 326.562 40.1891L318.43 48.1706C318.153 48.4417 317.787 48.581 317.413 48.581C317.04 48.581 316.674 48.4418 316.397 48.1706C316.397 48.1706 316.397 48.1706 316.397 48.1705Z" fill="white" stroke="black" stroke-width="2"/>
<path d="M314.644 39.2072C314.644 37.7732 315.877 36.5314 317.484 36.5314C319.09 36.5314 320.323 37.7732 320.323 39.2072C320.323 40.6411 319.09 41.8829 317.484 41.8829C315.877 41.8829 314.644 40.6411 314.644 39.2072ZM314.809 39.2072C314.809 40.6841 316.049 41.8102 317.484 41.8102C318.918 41.8102 320.158 40.6841 320.158 39.2072C320.158 37.7305 318.918 36.6041 317.484 36.6041C316.049 36.6041 314.809 37.7305 314.809 39.2072Z" fill="white" stroke="black" stroke-width="2"/>
<ellipse cx="317.028" cy="40.9722" rx="4.86111" ry="4.86111" fill="#7EC9C5"/>
</svg>
