<svg width="1440" height="289" viewBox="0 0 1440 289" fill="none" xmlns="http://www.w3.org/2000/svg">
<path fill-rule="evenodd" clip-rule="evenodd" d="M1440 161L1380 179C1320 197 1216 217.5 1096 235.5C976 253.5 840 245 720 203C600 161 480 101 360 59C240 17 120 17 60 17H0V341H60C120 341 240 341 360 341C480 341 600 341 720 341C840 341 960 341 1080 341C1200 341 1320 341 1380 341H1440V161Z" fill="#7EC9C5"/>
<path fill-rule="evenodd" clip-rule="evenodd" d="M1452 145L1390.21 163C1328.42 181 1221.31 201.5 1097.73 219.5C974.144 237.5 834.083 229 710.5 187C586.917 145 463.333 85 339.75 43C216.167 1 92.5834 1 30.7917 1H-31V325H30.7917C92.5834 325 216.167 325 339.75 325C463.333 325 586.917 325 710.5 325C834.083 325 957.667 325 1081.25 325C1204.83 325 1328.42 325 1390.21 325H1452V145Z" stroke="#7EC9C5" stroke-width="2"/>
<path fill-rule="evenodd" clip-rule="evenodd" d="M1452 145L1390.21 163C1328.42 181 1221.31 201.5 1097.73 219.5C974.144 237.5 834.083 229 710.5 187C586.917 145 463.333 85 339.75 43C216.167 1 92.5834 1 30.7917 1H-31V325H30.7917C92.5834 325 216.167 325 339.75 325C463.333 325 586.917 325 710.5 325C834.083 325 957.667 325 1081.25 325C1204.83 325 1328.42 325 1390.21 325H1452V145Z" stroke="url(#paint0_linear)" stroke-width="2"/>
<path d="M93.808 227.704C95.088 227.704 96.0853 228.072 96.8 228.808C97.5147 229.544 97.872 230.611 97.872 232.008V239H96.704V232.04C96.704 230.952 96.4267 230.136 95.872 229.592C95.328 229.037 94.5813 228.76 93.632 228.76C92.6293 228.76 91.8453 229.053 91.28 229.64C90.7147 230.216 90.432 231.101 90.432 232.296V239H89.264V232.04C89.264 230.952 88.9973 230.136 88.464 229.592C87.9307 229.037 87.1893 228.76 86.24 228.76C85.2267 228.76 84.432 229.053 83.856 229.64C83.2907 230.216 83.008 231.101 83.008 232.296V239H81.824V227.8H82.96V229.672C83.2693 229.032 83.728 228.547 84.336 228.216C84.944 227.875 85.664 227.704 86.496 227.704C87.3707 227.704 88.1173 227.891 88.736 228.264C89.3653 228.627 89.8187 229.139 90.096 229.8C90.416 229.117 90.896 228.6 91.536 228.248C92.1867 227.885 92.944 227.704 93.808 227.704ZM108.873 230.584V239H107.785V237.336C107.444 237.901 106.991 238.333 106.425 238.632C105.871 238.931 105.241 239.08 104.537 239.08C103.748 239.08 103.033 238.899 102.393 238.536C101.753 238.173 101.252 237.667 100.889 237.016C100.527 236.365 100.345 235.624 100.345 234.792C100.345 233.96 100.527 233.219 100.889 232.568C101.252 231.917 101.753 231.416 102.393 231.064C103.033 230.701 103.748 230.52 104.537 230.52C105.22 230.52 105.833 230.664 106.377 230.952C106.932 231.229 107.385 231.64 107.737 232.184V230.584H108.873ZM104.633 238.072C105.22 238.072 105.748 237.939 106.217 237.672C106.697 237.395 107.071 237.005 107.337 236.504C107.615 236.003 107.753 235.432 107.753 234.792C107.753 234.152 107.615 233.581 107.337 233.08C107.071 232.579 106.697 232.195 106.217 231.928C105.748 231.651 105.22 231.512 104.633 231.512C104.036 231.512 103.497 231.651 103.017 231.928C102.548 232.195 102.175 232.579 101.897 233.08C101.631 233.581 101.497 234.152 101.497 234.792C101.497 235.432 101.631 236.003 101.897 236.504C102.175 237.005 102.548 237.395 103.017 237.672C103.497 237.939 104.036 238.072 104.633 238.072ZM119.717 227.128V239H118.629V237.336C118.288 237.901 117.834 238.333 117.269 238.632C116.714 238.931 116.085 239.08 115.381 239.08C114.592 239.08 113.877 238.899 113.237 238.536C112.597 238.173 112.096 237.667 111.733 237.016C111.37 236.365 111.189 235.624 111.189 234.792C111.189 233.96 111.37 233.219 111.733 232.568C112.096 231.917 112.597 231.416 113.237 231.064C113.877 230.701 114.592 230.52 115.381 230.52C116.064 230.52 116.677 230.664 117.221 230.952C117.776 231.229 118.229 231.64 118.581 232.184V227.128H119.717ZM115.477 238.072C116.064 238.072 116.592 237.939 117.061 237.672C117.541 237.395 117.914 237.005 118.181 236.504C118.458 236.003 118.597 235.432 118.597 234.792C118.597 234.152 118.458 233.581 118.181 233.08C117.914 232.579 117.541 232.195 117.061 231.928C116.592 231.651 116.064 231.512 115.477 231.512C114.88 231.512 114.341 231.651 113.861 231.928C113.392 232.195 113.018 232.579 112.741 233.08C112.474 233.581 112.341 234.152 112.341 234.792C112.341 235.432 112.474 236.003 112.741 236.504C113.018 237.005 113.392 237.395 113.861 237.672C114.341 237.939 114.88 238.072 115.477 238.072ZM126.481 238.072C127.004 238.072 127.484 237.981 127.921 237.8C128.369 237.608 128.748 237.331 129.057 236.968L129.697 237.704C129.324 238.152 128.86 238.493 128.305 238.728C127.75 238.963 127.137 239.08 126.465 239.08C125.601 239.08 124.833 238.899 124.161 238.536C123.489 238.163 122.966 237.651 122.593 237C122.22 236.349 122.033 235.613 122.033 234.792C122.033 233.971 122.209 233.235 122.561 232.584C122.924 231.933 123.42 231.427 124.049 231.064C124.678 230.701 125.393 230.52 126.193 230.52C126.94 230.52 127.612 230.691 128.209 231.032C128.817 231.373 129.297 231.848 129.649 232.456C130.012 233.064 130.204 233.757 130.225 234.536L123.313 235.88C123.526 236.563 123.91 237.101 124.465 237.496C125.03 237.88 125.702 238.072 126.481 238.072ZM126.193 231.496C125.606 231.496 125.078 231.635 124.609 231.912C124.15 232.179 123.788 232.557 123.521 233.048C123.265 233.528 123.137 234.083 123.137 234.712C123.137 234.872 123.142 234.989 123.153 235.064L129.089 233.912C128.961 233.208 128.636 232.632 128.113 232.184C127.59 231.725 126.95 231.496 126.193 231.496ZM149.701 230.584V235.24C149.701 236.488 149.402 237.443 148.805 238.104C148.207 238.755 147.327 239.08 146.165 239.08C145.429 239.08 144.81 238.941 144.309 238.664C143.818 238.376 143.439 237.923 143.173 237.304C142.906 237.912 142.527 238.36 142.037 238.648C141.546 238.936 140.927 239.08 140.181 239.08C139.018 239.08 138.138 238.755 137.541 238.104C136.943 237.443 136.645 236.488 136.645 235.24V230.584H137.781V235.144C137.781 236.136 137.973 236.872 138.357 237.352C138.741 237.821 139.349 238.056 140.181 238.056C141.002 238.056 141.61 237.816 142.005 237.336C142.41 236.856 142.613 236.115 142.613 235.112V230.584H143.749V235.112C143.749 236.115 143.946 236.856 144.341 237.336C144.735 237.816 145.349 238.056 146.181 238.056C146.991 238.056 147.589 237.821 147.973 237.352C148.367 236.872 148.565 236.136 148.565 235.144V230.584H149.701ZM152.787 230.584H153.923V239H152.787V230.584ZM153.363 228.744C153.128 228.744 152.931 228.664 152.771 228.504C152.611 228.344 152.531 228.152 152.531 227.928C152.531 227.715 152.611 227.528 152.771 227.368C152.931 227.208 153.128 227.128 153.363 227.128C153.598 227.128 153.795 227.208 153.955 227.368C154.115 227.517 154.195 227.699 154.195 227.912C154.195 228.147 154.115 228.344 153.955 228.504C153.795 228.664 153.598 228.744 153.363 228.744ZM161.228 238.488C161.015 238.68 160.753 238.829 160.444 238.936C160.135 239.032 159.809 239.08 159.468 239.08C158.679 239.08 158.071 238.867 157.644 238.44C157.217 238.013 157.004 237.411 157.004 236.632V228.744H158.14V230.584H160.684V231.544H158.14V236.568C158.14 237.069 158.263 237.453 158.508 237.72C158.753 237.976 159.111 238.104 159.58 238.104C160.092 238.104 160.508 237.96 160.828 237.672L161.228 238.488ZM167.575 230.52C168.631 230.52 169.468 230.829 170.087 231.448C170.716 232.056 171.031 232.947 171.031 234.12V239H169.895V234.232C169.895 233.357 169.676 232.691 169.239 232.232C168.802 231.773 168.178 231.544 167.367 231.544C166.46 231.544 165.74 231.816 165.207 232.36C164.684 232.893 164.423 233.635 164.423 234.584V239H163.287V227.128H164.423V232.056C164.732 231.565 165.159 231.187 165.703 230.92C166.247 230.653 166.871 230.52 167.575 230.52Z" fill="black"/>
<path d="M186.637 227C185.068 227 183.996 227.809 183.5 229.167C183.004 227.809 181.932 227 180.363 227C177.002 227 175.882 231.333 178.287 234.204C179.141 235.223 183.275 239.755 183.5 240C183.724 239.755 187.859 235.223 188.713 234.204C191.118 231.333 189.998 227 186.637 227Z" fill="#EA2F2F"/>
<path d="M201.92 230.52C202.709 230.52 203.424 230.701 204.064 231.064C204.704 231.416 205.205 231.917 205.568 232.568C205.931 233.219 206.112 233.96 206.112 234.792C206.112 235.624 205.931 236.365 205.568 237.016C205.205 237.667 204.704 238.173 204.064 238.536C203.424 238.899 202.709 239.08 201.92 239.08C201.216 239.08 200.581 238.931 200.016 238.632C199.461 238.333 199.013 237.901 198.672 237.336V239H197.584V227.128H198.72V232.184C199.072 231.64 199.52 231.229 200.064 230.952C200.619 230.664 201.237 230.52 201.92 230.52ZM201.84 238.072C202.427 238.072 202.96 237.939 203.44 237.672C203.92 237.395 204.293 237.005 204.56 236.504C204.837 236.003 204.976 235.432 204.976 234.792C204.976 234.152 204.837 233.581 204.56 233.08C204.293 232.579 203.92 232.195 203.44 231.928C202.96 231.651 202.427 231.512 201.84 231.512C201.243 231.512 200.704 231.651 200.224 231.928C199.755 232.195 199.381 232.579 199.104 233.08C198.837 233.581 198.704 234.152 198.704 234.792C198.704 235.432 198.837 236.003 199.104 236.504C199.381 237.005 199.755 237.395 200.224 237.672C200.704 237.939 201.243 238.072 201.84 238.072ZM216.012 230.584V237.976C216.012 239.405 215.686 240.461 215.036 241.144C214.385 241.837 213.404 242.184 212.092 242.184C211.356 242.184 210.657 242.067 209.996 241.832C209.345 241.608 208.817 241.293 208.412 240.888L208.988 240.024C209.35 240.387 209.798 240.669 210.332 240.872C210.865 241.075 211.436 241.176 212.044 241.176C213.014 241.176 213.729 240.925 214.188 240.424C214.646 239.933 214.876 239.165 214.876 238.12V237.144C214.577 237.635 214.166 238.013 213.644 238.28C213.132 238.547 212.55 238.68 211.9 238.68C210.801 238.68 209.932 238.376 209.292 237.768C208.662 237.149 208.348 236.248 208.348 235.064V230.584H209.484V234.952C209.484 235.837 209.702 236.509 210.14 236.968C210.577 237.427 211.201 237.656 212.012 237.656C212.897 237.656 213.596 237.389 214.108 236.856C214.62 236.312 214.876 235.56 214.876 234.6V230.584H216.012ZM227.813 227.8C229.242 227.8 230.362 228.141 231.173 228.824C231.984 229.507 232.389 230.445 232.389 231.64C232.389 232.835 231.984 233.773 231.173 234.456C230.362 235.128 229.242 235.464 227.813 235.464H224.805V239H223.621V227.8H227.813ZM227.781 234.424C228.89 234.424 229.738 234.184 230.325 233.704C230.912 233.213 231.205 232.525 231.205 231.64C231.205 230.733 230.912 230.04 230.325 229.56C229.738 229.069 228.89 228.824 227.781 228.824H224.805V234.424H227.781ZM235.578 232.232C235.845 231.667 236.24 231.24 236.762 230.952C237.296 230.664 237.952 230.52 238.73 230.52V231.624L238.458 231.608C237.573 231.608 236.88 231.88 236.378 232.424C235.877 232.968 235.626 233.731 235.626 234.712V239H234.49V230.584H235.578V232.232ZM244.149 239.08C243.338 239.08 242.608 238.899 241.957 238.536C241.306 238.163 240.794 237.651 240.421 237C240.048 236.349 239.861 235.613 239.861 234.792C239.861 233.971 240.048 233.235 240.421 232.584C240.794 231.933 241.306 231.427 241.957 231.064C242.608 230.701 243.338 230.52 244.149 230.52C244.96 230.52 245.69 230.701 246.341 231.064C246.992 231.427 247.498 231.933 247.861 232.584C248.234 233.235 248.421 233.971 248.421 234.792C248.421 235.613 248.234 236.349 247.861 237C247.498 237.651 246.992 238.163 246.341 238.536C245.69 238.899 244.96 239.08 244.149 239.08ZM244.149 238.072C244.746 238.072 245.28 237.939 245.749 237.672C246.229 237.395 246.602 237.005 246.869 236.504C247.136 236.003 247.269 235.432 247.269 234.792C247.269 234.152 247.136 233.581 246.869 233.08C246.602 232.579 246.229 232.195 245.749 231.928C245.28 231.651 244.746 231.512 244.149 231.512C243.552 231.512 243.013 231.651 242.533 231.928C242.064 232.195 241.69 232.579 241.413 233.08C241.146 233.581 241.013 234.152 241.013 234.792C241.013 235.432 241.146 236.003 241.413 236.504C241.69 237.005 242.064 237.395 242.533 237.672C243.013 237.939 243.552 238.072 244.149 238.072ZM258.868 233.4H260.004V239H258.964V238.056C258.538 238.397 258.036 238.659 257.46 238.84C256.895 239.011 256.287 239.096 255.636 239.096C254.634 239.096 253.7 238.872 252.836 238.424C251.983 237.976 251.295 237.325 250.772 236.472C250.25 235.619 249.988 234.605 249.988 233.432C249.988 232.344 250.244 231.368 250.756 230.504C251.268 229.629 251.972 228.947 252.868 228.456C253.764 227.955 254.778 227.704 255.908 227.704C256.762 227.704 257.546 227.843 258.26 228.12C258.975 228.387 259.578 228.787 260.068 229.32L259.332 230.072C258.447 229.197 257.322 228.76 255.956 228.76C255.05 228.76 254.228 228.963 253.492 229.368C252.767 229.763 252.196 230.317 251.78 231.032C251.364 231.747 251.156 232.547 251.156 233.432C251.156 234.381 251.364 235.208 251.78 235.912C252.207 236.605 252.767 237.139 253.46 237.512C254.164 237.875 254.916 238.056 255.716 238.056C256.303 238.056 256.868 237.96 257.412 237.768C257.967 237.565 258.452 237.261 258.868 236.856V233.4ZM264.203 232.232C264.47 231.667 264.865 231.24 265.387 230.952C265.921 230.664 266.577 230.52 267.355 230.52V231.624L267.083 231.608C266.198 231.608 265.505 231.88 265.003 232.424C264.502 232.968 264.251 233.731 264.251 234.712V239H263.115V230.584H264.203V232.232ZM277.014 230.584V239H275.926V237.336C275.585 237.901 275.131 238.333 274.566 238.632C274.011 238.931 273.382 239.08 272.678 239.08C271.889 239.08 271.174 238.899 270.534 238.536C269.894 238.173 269.393 237.667 269.03 237.016C268.667 236.365 268.486 235.624 268.486 234.792C268.486 233.96 268.667 233.219 269.03 232.568C269.393 231.917 269.894 231.416 270.534 231.064C271.174 230.701 271.889 230.52 272.678 230.52C273.361 230.52 273.974 230.664 274.518 230.952C275.073 231.229 275.526 231.64 275.878 232.184V230.584H277.014ZM272.774 238.072C273.361 238.072 273.889 237.939 274.358 237.672C274.838 237.395 275.211 237.005 275.478 236.504C275.755 236.003 275.894 235.432 275.894 234.792C275.894 234.152 275.755 233.581 275.478 233.08C275.211 232.579 274.838 232.195 274.358 231.928C273.889 231.651 273.361 231.512 272.774 231.512C272.177 231.512 271.638 231.651 271.158 231.928C270.689 232.195 270.315 232.579 270.038 233.08C269.771 233.581 269.638 234.152 269.638 234.792C269.638 235.432 269.771 236.003 270.038 236.504C270.315 237.005 270.689 237.395 271.158 237.672C271.638 237.939 272.177 238.072 272.774 238.072ZM287.858 227.128V239H286.77V237.336C286.428 237.901 285.975 238.333 285.41 238.632C284.855 238.931 284.226 239.08 283.522 239.08C282.732 239.08 282.018 238.899 281.378 238.536C280.738 238.173 280.236 237.667 279.874 237.016C279.511 236.365 279.33 235.624 279.33 234.792C279.33 233.96 279.511 233.219 279.874 232.568C280.236 231.917 280.738 231.416 281.378 231.064C282.018 230.701 282.732 230.52 283.522 230.52C284.204 230.52 284.818 230.664 285.362 230.952C285.916 231.229 286.37 231.64 286.722 232.184V227.128H287.858ZM283.618 238.072C284.204 238.072 284.732 237.939 285.202 237.672C285.682 237.395 286.055 237.005 286.322 236.504C286.599 236.003 286.738 235.432 286.738 234.792C286.738 234.152 286.599 233.581 286.322 233.08C286.055 232.579 285.682 232.195 285.202 231.928C284.732 231.651 284.204 231.512 283.618 231.512C283.02 231.512 282.482 231.651 282.002 231.928C281.532 232.195 281.159 232.579 280.882 233.08C280.615 233.581 280.482 234.152 280.482 234.792C280.482 235.432 280.615 236.003 280.882 236.504C281.159 237.005 281.532 237.395 282.002 237.672C282.482 237.939 283.02 238.072 283.618 238.072ZM293.278 239.08C292.595 239.08 291.939 238.984 291.31 238.792C290.691 238.589 290.206 238.339 289.854 238.04L290.366 237.144C290.718 237.421 291.16 237.651 291.694 237.832C292.227 238.003 292.782 238.088 293.358 238.088C294.126 238.088 294.691 237.971 295.054 237.736C295.427 237.491 295.614 237.149 295.614 236.712C295.614 236.403 295.512 236.163 295.31 235.992C295.107 235.811 294.851 235.677 294.542 235.592C294.232 235.496 293.822 235.405 293.31 235.32C292.627 235.192 292.078 235.064 291.662 234.936C291.246 234.797 290.888 234.568 290.59 234.248C290.302 233.928 290.158 233.485 290.158 232.92C290.158 232.216 290.451 231.64 291.038 231.192C291.624 230.744 292.44 230.52 293.486 230.52C294.03 230.52 294.574 230.595 295.118 230.744C295.662 230.883 296.11 231.069 296.462 231.304L295.966 232.216C295.272 231.736 294.446 231.496 293.486 231.496C292.76 231.496 292.211 231.624 291.838 231.88C291.475 232.136 291.294 232.472 291.294 232.888C291.294 233.208 291.395 233.464 291.598 233.656C291.811 233.848 292.072 233.992 292.382 234.088C292.691 234.173 293.118 234.264 293.661 234.36C294.334 234.488 294.872 234.616 295.278 234.744C295.683 234.872 296.03 235.091 296.318 235.4C296.606 235.709 296.75 236.136 296.75 236.68C296.75 237.416 296.44 238.003 295.822 238.44C295.214 238.867 294.366 239.08 293.278 239.08Z" fill="black"/>
<defs>
<linearGradient id="paint0_linear" x1="710.5" y1="1" x2="710.5" y2="325" gradientUnits="userSpaceOnUse">
<stop stop-color="white"/>
<stop offset="1" stop-color="white" stop-opacity="0"/>
</linearGradient>
</defs>
</svg>
