<svg width="266" height="80" viewBox="0 0 266 80" fill="none" xmlns="http://www.w3.org/2000/svg">
<path d="M14.8328 27.584C18.0968 27.584 20.6648 28.544 22.5368 30.464C24.4328 32.36 25.3808 35.108 25.3808 38.708V53H22.7528V45.584H6.91282V53H4.32082V38.708C4.32082 35.108 5.25682 32.36 7.12882 30.464C9.02482 28.544 11.5928 27.584 14.8328 27.584ZM22.7528 43.28V38.456C22.7528 35.648 22.0568 33.536 20.6648 32.12C19.2728 30.68 17.3288 29.96 14.8328 29.96C12.3368 29.96 10.3928 30.68 9.00082 32.12C7.60882 33.536 6.91282 35.648 6.91282 38.456V43.28H22.7528ZM43.9129 53.216C42.0409 53.216 40.2409 52.916 38.5129 52.316C36.8089 51.716 35.4889 50.924 34.5529 49.94L35.5969 47.888C36.5089 48.8 37.7209 49.544 39.2329 50.12C40.7449 50.672 42.3049 50.948 43.9129 50.948C46.1689 50.948 47.8609 50.54 48.9889 49.724C50.1169 48.884 50.6809 47.804 50.6809 46.484C50.6809 45.476 50.3689 44.672 49.7449 44.072C49.1449 43.472 48.4009 43.016 47.5129 42.704C46.6249 42.368 45.3889 42.008 43.8049 41.624C41.9089 41.144 40.3969 40.688 39.2689 40.256C38.1409 39.8 37.1689 39.116 36.3529 38.204C35.5609 37.292 35.1649 36.056 35.1649 34.496C35.1649 33.224 35.5009 32.072 36.1729 31.04C36.8449 29.984 37.8769 29.144 39.2689 28.52C40.6609 27.896 42.3889 27.584 44.4529 27.584C45.8929 27.584 47.2969 27.788 48.6649 28.196C50.0569 28.58 51.2569 29.12 52.2649 29.816L51.3649 31.94C50.3089 31.244 49.1809 30.728 47.9809 30.392C46.7809 30.032 45.6049 29.852 44.4529 29.852C42.2449 29.852 40.5769 30.284 39.4489 31.148C38.3449 31.988 37.7929 33.08 37.7929 34.424C37.7929 35.432 38.0929 36.248 38.6929 36.872C39.3169 37.472 40.0849 37.94 40.9969 38.276C41.9329 38.588 43.1809 38.936 44.7409 39.32C46.5889 39.776 48.0769 40.232 49.2049 40.688C50.3569 41.12 51.3289 41.792 52.1209 42.704C52.9129 43.592 53.3089 44.804 53.3089 46.34C53.3089 47.612 52.9609 48.776 52.2649 49.832C51.5929 50.864 50.5489 51.692 49.1329 52.316C47.7169 52.916 45.9769 53.216 43.9129 53.216ZM78.309 32.444C75.837 31.004 73.101 30.176 70.101 29.96V53H67.437V29.96C64.485 30.152 61.737 30.98 59.193 32.444L58.221 30.356C61.341 28.508 64.845 27.584 68.733 27.584C72.693 27.584 76.209 28.508 79.281 30.356L78.309 32.444ZM104.123 53L98.3629 44.9C97.7149 44.972 97.0429 45.008 96.3469 45.008H89.5789V53H86.9149V27.8H96.3469C99.5629 27.8 102.083 28.568 103.907 30.104C105.731 31.64 106.643 33.752 106.643 36.44C106.643 38.408 106.139 40.076 105.131 41.444C104.147 42.788 102.731 43.76 100.883 44.36L107.039 53H104.123ZM96.2749 42.74C98.7709 42.74 100.679 42.188 101.999 41.084C103.319 39.98 103.979 38.432 103.979 36.44C103.979 34.4 103.319 32.84 101.999 31.76C100.679 30.656 98.7709 30.104 96.2749 30.104H89.5789V42.74H96.2749ZM127.547 53.216C125.051 53.216 122.783 52.664 120.743 51.56C118.727 50.432 117.143 48.896 115.991 46.952C114.863 45.008 114.299 42.824 114.299 40.4C114.299 37.976 114.863 35.792 115.991 33.848C117.143 31.904 118.727 30.38 120.743 29.276C122.783 28.148 125.051 27.584 127.547 27.584C130.043 27.584 132.287 28.136 134.279 29.24C136.295 30.344 137.879 31.88 139.031 33.848C140.183 35.792 140.759 37.976 140.759 40.4C140.759 42.824 140.183 45.02 139.031 46.988C137.879 48.932 136.295 50.456 134.279 51.56C132.287 52.664 130.043 53.216 127.547 53.216ZM127.547 50.84C129.539 50.84 131.339 50.396 132.947 49.508C134.555 48.596 135.815 47.348 136.727 45.764C137.639 44.156 138.095 42.368 138.095 40.4C138.095 38.432 137.639 36.656 136.727 35.072C135.815 33.464 134.555 32.216 132.947 31.328C131.339 30.416 129.539 29.96 127.547 29.96C125.555 29.96 123.743 30.416 122.111 31.328C120.503 32.216 119.231 33.464 118.295 35.072C117.383 36.656 116.927 38.432 116.927 40.4C116.927 42.368 117.383 44.156 118.295 45.764C119.231 47.348 120.503 48.596 122.111 49.508C123.743 50.396 125.555 50.84 127.547 50.84ZM168.373 50.696V53H147.709V51.308L155.557 41.3H149.977V39.068H157.285L164.305 30.104H147.817V27.8H167.833V29.456L160.309 39.104H165.529V41.336H158.581L151.273 50.696H168.373ZM188.114 53.216C185.618 53.216 183.35 52.664 181.31 51.56C179.294 50.432 177.71 48.896 176.558 46.952C175.43 45.008 174.866 42.824 174.866 40.4C174.866 37.976 175.43 35.792 176.558 33.848C177.71 31.904 179.294 30.38 181.31 29.276C183.35 28.148 185.618 27.584 188.114 27.584C190.61 27.584 192.854 28.136 194.846 29.24C196.862 30.344 198.446 31.88 199.598 33.848C200.75 35.792 201.326 37.976 201.326 40.4C201.326 42.824 200.75 45.02 199.598 46.988C198.446 48.932 196.862 50.456 194.846 51.56C192.854 52.664 190.61 53.216 188.114 53.216ZM188.114 50.84C190.106 50.84 191.906 50.396 193.514 49.508C195.122 48.596 196.382 47.348 197.294 45.764C198.206 44.156 198.662 42.368 198.662 40.4C198.662 38.432 198.206 36.656 197.294 35.072C196.382 33.464 195.122 32.216 193.514 31.328C191.906 30.416 190.106 29.96 188.114 29.96C186.122 29.96 184.31 30.416 182.678 31.328C181.07 32.216 179.798 33.464 178.862 35.072C177.95 36.656 177.494 38.432 177.494 40.4C177.494 42.368 177.95 44.156 178.862 45.764C179.798 47.348 181.07 48.596 182.678 49.508C184.31 50.396 186.122 50.84 188.114 50.84ZM221.985 27.584C225.009 27.584 227.373 28.484 229.077 30.284C230.805 32.084 231.669 34.652 231.669 37.988V53H229.005V38.06C229.005 35.396 228.345 33.38 227.025 32.012C225.705 30.644 223.857 29.96 221.481 29.96C218.985 29.96 217.041 30.692 215.649 32.156C214.257 33.596 213.561 35.768 213.561 38.672V53H210.897V27.8H213.453V32.048C215.061 29.072 217.905 27.584 221.985 27.584ZM261.255 50.12C260.223 51.104 258.843 51.872 257.115 52.424C255.411 52.952 253.515 53.216 251.427 53.216C249.219 53.216 247.335 52.916 245.775 52.316C244.239 51.716 243.075 50.888 242.283 49.832C241.515 48.776 241.131 47.564 241.131 46.196C241.131 44.684 241.575 43.4 242.463 42.344C243.375 41.288 244.563 40.556 246.027 40.148C244.827 39.692 243.891 38.972 243.219 37.988C242.547 36.98 242.211 35.804 242.211 34.46C242.211 33.188 242.571 32.036 243.291 31.004C244.035 29.948 245.139 29.12 246.603 28.52C248.091 27.896 249.879 27.584 251.967 27.584C253.503 27.584 254.991 27.764 256.431 28.124C257.895 28.46 259.143 28.952 260.175 29.6L259.347 31.724C257.139 30.476 254.715 29.852 252.075 29.852C249.747 29.852 247.959 30.296 246.711 31.184C245.487 32.072 244.875 33.224 244.875 34.64C244.875 36.056 245.367 37.148 246.351 37.916C247.359 38.684 248.775 39.068 250.599 39.068H256.863V41.372H250.491C248.427 41.372 246.795 41.768 245.595 42.56C244.395 43.328 243.795 44.48 243.795 46.016C243.795 47.528 244.443 48.728 245.739 49.616C247.059 50.504 248.991 50.948 251.535 50.948C253.311 50.948 254.967 50.696 256.503 50.192C258.039 49.688 259.287 48.992 260.247 48.104L261.255 50.12Z" fill="black"/>
<path d="M22.5368 30.464L21.8208 31.1622L21.8297 31.1711L22.5368 30.464ZM25.3808 53V54H26.3808V53H25.3808ZM22.7528 53H21.7528V54H22.7528V53ZM22.7528 45.584H23.7528V44.584H22.7528V45.584ZM6.91282 45.584V44.584H5.91282V45.584H6.91282ZM6.91282 53V54H7.91282V53H6.91282ZM4.32082 53H3.32082V54H4.32082V53ZM7.12882 30.464L6.41728 29.7614L6.41722 29.7614L7.12882 30.464ZM22.7528 43.28V44.28H23.7528V43.28H22.7528ZM20.6648 32.12L19.9458 32.815L19.9517 32.821L20.6648 32.12ZM9.00082 32.12L9.71397 32.8211L9.7198 32.815L9.00082 32.12ZM6.91282 43.28H5.91282V44.28H6.91282V43.28ZM14.8328 28.584C17.8899 28.584 20.1767 29.4758 21.8208 31.1621L23.2528 29.7659C21.153 27.6122 18.3038 26.584 14.8328 26.584V28.584ZM21.8297 31.1711C23.481 32.8224 24.3808 35.2796 24.3808 38.708H26.3808C26.3808 34.9364 25.3847 31.8976 23.2439 29.7569L21.8297 31.1711ZM24.3808 38.708V53H26.3808V38.708H24.3808ZM25.3808 52H22.7528V54H25.3808V52ZM23.7528 53V45.584H21.7528V53H23.7528ZM22.7528 44.584H6.91282V46.584H22.7528V44.584ZM5.91282 45.584V53H7.91282V45.584H5.91282ZM6.91282 52H4.32082V54H6.91282V52ZM5.32082 53V38.708H3.32082V53H5.32082ZM5.32082 38.708C5.32082 35.2762 6.21054 32.8174 7.84041 31.1666L6.41722 29.7614C4.30309 31.9026 3.32082 34.9398 3.32082 38.708H5.32082ZM7.84036 31.1666C9.51156 29.4743 11.8027 28.584 14.8328 28.584V26.584C11.383 26.584 8.53807 27.6137 6.41728 29.7614L7.84036 31.1666ZM23.7528 43.28V38.456H21.7528V43.28H23.7528ZM23.7528 38.456C23.7528 35.4953 23.0185 33.0878 21.3779 31.419L19.9517 32.821C21.0952 33.9842 21.7528 35.8007 21.7528 38.456H23.7528ZM21.3838 31.425C19.7592 29.7443 17.5289 28.96 14.8328 28.96V30.96C17.1287 30.96 18.7864 31.6157 19.9458 32.815L21.3838 31.425ZM14.8328 28.96C12.1367 28.96 9.90644 29.7443 8.28183 31.425L9.7198 32.815C10.8792 31.6157 12.5369 30.96 14.8328 30.96V28.96ZM8.28769 31.419C6.64717 33.0878 5.91282 35.4953 5.91282 38.456H7.91282C7.91282 35.8007 8.57046 33.9842 9.71394 32.821L8.28769 31.419ZM5.91282 38.456V43.28H7.91282V38.456H5.91282ZM6.91282 44.28H22.7528V42.28H6.91282V44.28ZM38.5129 52.316L38.1808 53.2592L38.1849 53.2607L38.5129 52.316ZM34.5529 49.94L33.6617 49.4865L33.341 50.1168L33.8284 50.6292L34.5529 49.94ZM35.5969 47.888L36.304 47.1809L35.3302 46.207L34.7057 47.4345L35.5969 47.888ZM39.2329 50.12L38.8769 51.0546L38.89 51.0594L39.2329 50.12ZM48.9889 49.724L49.5751 50.5343L49.5862 50.526L48.9889 49.724ZM49.7449 44.072L49.0378 44.7791L49.0448 44.786L49.0518 44.7928L49.7449 44.072ZM47.5129 42.704L47.159 43.6393L47.1702 43.6435L47.1815 43.6475L47.5129 42.704ZM43.8049 41.624L43.5595 42.5935L43.5693 42.5958L43.8049 41.624ZM39.2689 40.256L38.8941 41.1831L38.9027 41.1866L38.9113 41.1899L39.2689 40.256ZM36.3529 38.204L35.5979 38.8597L35.6028 38.8653L35.6077 38.8708L36.3529 38.204ZM36.1729 31.04L37.011 31.5857L37.0166 31.5769L36.1729 31.04ZM39.2689 28.52L39.678 29.4325L39.678 29.4325L39.2689 28.52ZM48.6649 28.196L48.3791 29.1543L48.389 29.1572L48.399 29.16L48.6649 28.196ZM52.2649 29.816L53.1857 30.2061L53.5035 29.456L52.8331 28.9931L52.2649 29.816ZM51.3649 31.94L50.8146 32.775L51.8172 33.4358L52.2857 32.3301L51.3649 31.94ZM47.9809 30.392L47.6936 31.3498L47.7024 31.3525L47.7113 31.355L47.9809 30.392ZM39.4489 31.148L40.0545 31.9438L40.057 31.9419L39.4489 31.148ZM38.6929 36.872L37.9721 37.5651L37.9857 37.5792L37.9998 37.5928L38.6929 36.872ZM40.9969 38.276L40.6512 39.2143L40.6659 39.2197L40.6807 39.2247L40.9969 38.276ZM44.7409 39.32L44.9805 38.3491L44.98 38.349L44.7409 39.32ZM49.2049 40.688L48.8302 41.6151L48.8419 41.6199L48.8538 41.6243L49.2049 40.688ZM52.1209 42.704L51.3658 43.3597L51.3746 43.3696L52.1209 42.704ZM52.2649 49.832L51.43 49.2817L51.4269 49.2863L52.2649 49.832ZM49.1329 52.316L49.5231 53.2368L49.5297 53.234L49.5362 53.2311L49.1329 52.316ZM43.9129 52.216C42.1499 52.216 40.461 51.9338 38.841 51.3713L38.1849 53.2607C40.0209 53.8982 41.9319 54.216 43.9129 54.216V52.216ZM38.8451 51.3728C37.2429 50.8086 36.0747 50.0889 35.2775 49.2508L33.8284 50.6292C34.9032 51.7591 36.3749 52.6234 38.1808 53.2592L38.8451 51.3728ZM35.4442 50.3935L36.4882 48.3415L34.7057 47.4345L33.6617 49.4865L35.4442 50.3935ZM34.8898 48.5951C35.9235 49.6288 37.2657 50.4407 38.8769 51.0545L39.5889 49.1855C38.1762 48.6473 37.0944 47.9712 36.304 47.1809L34.8898 48.5951ZM38.89 51.0594C40.5118 51.6514 42.1878 51.948 43.9129 51.948V49.948C42.422 49.948 40.9781 49.6926 39.5759 49.1806L38.89 51.0594ZM43.9129 51.948C46.2596 51.948 48.2 51.529 49.5751 50.5342L48.4028 48.9138C47.5219 49.551 46.0783 49.948 43.9129 49.948V51.948ZM49.5862 50.526C50.9483 49.5117 51.6809 48.1433 51.6809 46.484H49.6809C49.6809 47.4647 49.2856 48.2563 48.3917 48.922L49.5862 50.526ZM51.6809 46.484C51.6809 45.2526 51.2906 44.1709 50.438 43.3512L49.0518 44.7928C49.4473 45.1731 49.6809 45.6994 49.6809 46.484H51.6809ZM50.452 43.3649C49.735 42.6479 48.8582 42.1167 47.8444 41.7605L47.1815 43.6475C47.9437 43.9153 48.5549 44.2961 49.0378 44.7791L50.452 43.3649ZM47.8668 41.7687C46.9224 41.4114 45.6406 41.0401 44.0405 40.6521L43.5693 42.5958C45.1372 42.9759 46.3274 43.3246 47.159 43.6393L47.8668 41.7687ZM44.0504 40.6546C42.1723 40.1791 40.7026 39.7342 39.6266 39.3221L38.9113 41.1899C40.0913 41.6418 41.6456 42.1089 43.5595 42.5934L44.0504 40.6546ZM39.6437 39.3289C38.6583 38.9305 37.8128 38.3359 37.0982 37.5372L35.6077 38.8708C36.525 39.8961 37.6235 40.6695 38.8941 41.1831L39.6437 39.3289ZM37.108 37.5483C36.5154 36.866 36.1649 35.8869 36.1649 34.496H34.1649C34.1649 36.2251 34.6064 37.718 35.5979 38.8597L37.108 37.5483ZM36.1649 34.496C36.1649 33.411 36.4483 32.4498 37.0109 31.5857L35.3349 30.4943C34.5536 31.6942 34.1649 33.037 34.1649 34.496H36.1649ZM37.0166 31.5769C37.5626 30.7189 38.4251 29.9941 39.678 29.4325L38.8599 27.6075C37.3288 28.2938 36.1273 29.2491 35.3293 30.5031L37.0166 31.5769ZM39.678 29.4325C40.9044 28.8827 42.4829 28.584 44.4529 28.584V26.584C42.295 26.584 40.4175 26.9093 38.8599 27.6075L39.678 29.4325ZM44.4529 28.584C45.797 28.584 47.1047 28.7742 48.3791 29.1543L48.9507 27.2377C47.4892 26.8018 45.9889 26.584 44.4529 26.584V28.584ZM48.399 29.16C49.7019 29.5194 50.7957 30.0167 51.6967 30.6389L52.8331 28.9931C51.7182 28.2232 50.412 27.6406 48.9309 27.232L48.399 29.16ZM51.3442 29.4258L50.4442 31.5498L52.2857 32.3301L53.1857 30.2061L51.3442 29.4258ZM51.9153 31.105C50.7742 30.353 49.5517 29.7933 48.2506 29.429L47.7113 31.355C48.8102 31.6627 49.8437 32.135 50.8146 32.775L51.9153 31.105ZM48.2683 29.4342C46.9832 29.0486 45.7104 28.852 44.4529 28.852V30.852C45.4995 30.852 46.5787 31.0154 47.6936 31.3498L48.2683 29.4342ZM44.4529 28.852C42.1395 28.852 40.2165 29.3005 38.8409 30.3541L40.057 31.9419C40.9374 31.2675 42.3504 30.852 44.4529 30.852V28.852ZM38.8434 30.3522C37.5002 31.3742 36.7929 32.7561 36.7929 34.424H38.7929C38.7929 33.4039 39.1897 32.6018 40.0545 31.9438L38.8434 30.3522ZM36.7929 34.424C36.7929 35.6448 37.1637 36.7243 37.9721 37.5651L39.4138 36.1789C39.0222 35.7717 38.7929 35.2192 38.7929 34.424H36.7929ZM37.9998 37.5928C38.7349 38.2996 39.6256 38.8365 40.6512 39.2143L41.3426 37.3377C40.5443 37.0435 39.899 36.6444 39.386 36.1512L37.9998 37.5928ZM40.6807 39.2247C41.6529 39.5487 42.9298 39.904 44.5019 40.291L44.98 38.349C43.432 37.968 42.213 37.6273 41.3132 37.3273L40.6807 39.2247ZM44.5014 40.2909C46.3259 40.7411 47.7634 41.1839 48.8302 41.6151L49.5797 39.7609C48.3905 39.2801 46.852 38.8109 44.9805 38.3491L44.5014 40.2909ZM48.8538 41.6243C49.8529 41.999 50.6852 42.5758 51.3659 43.3597L52.876 42.0483C51.9727 41.0082 50.8609 40.241 49.5561 39.7517L48.8538 41.6243ZM51.3746 43.3696C51.9602 44.0262 52.3089 44.9761 52.3089 46.34H54.3089C54.3089 44.6319 53.8656 43.1578 52.8672 42.0384L51.3746 43.3696ZM52.3089 46.34C52.3089 47.4176 52.0177 48.39 51.43 49.2817L53.0999 50.3823C53.9042 49.162 54.3089 47.8064 54.3089 46.34H52.3089ZM51.4269 49.2863C50.8851 50.1184 50.0135 50.8352 48.7297 51.4009L49.5362 53.2311C51.0844 52.5488 52.3008 51.6096 53.1029 50.3777L51.4269 49.2863ZM48.7428 51.3952C47.4847 51.9284 45.8862 52.216 43.9129 52.216V54.216C46.0677 54.216 47.9492 53.9036 49.5231 53.2368L48.7428 51.3952ZM78.309 32.444L77.8056 33.3081L78.7529 33.8599L79.2156 32.866L78.309 32.444ZM70.101 29.96L70.1728 28.9626L69.101 28.8854V29.96H70.101ZM70.101 53V54H71.101V53H70.101ZM67.437 53H66.437V54H67.437V53ZM67.437 29.96H68.437V28.8928L67.3721 28.9621L67.437 29.96ZM59.193 32.444L58.2864 32.866L58.7466 33.8546L59.6918 33.3107L59.193 32.444ZM58.221 30.356L57.7114 29.4956L56.9322 29.9571L57.3144 30.778L58.221 30.356ZM79.281 30.356L80.1876 30.778L80.5671 29.9627L79.7965 29.4991L79.281 30.356ZM78.8123 31.5799C76.2018 30.0592 73.3169 29.189 70.1728 28.9626L70.0292 30.9574C72.8851 31.163 75.4722 31.9488 77.8056 33.3081L78.8123 31.5799ZM69.101 29.96V53H71.101V29.96H69.101ZM70.101 52H67.437V54H70.101V52ZM68.437 53V29.96H66.437V53H68.437ZM67.3721 28.9621C64.2686 29.164 61.372 30.0363 58.6942 31.5773L59.6918 33.3107C62.102 31.9237 64.7014 31.14 67.5019 30.9579L67.3721 28.9621ZM60.0996 32.022L59.1276 29.934L57.3144 30.778L58.2864 32.866L60.0996 32.022ZM58.7306 31.2164C61.6852 29.4664 65.0109 28.584 68.733 28.584V26.584C64.6791 26.584 60.9968 27.5496 57.7114 29.4956L58.7306 31.2164ZM68.733 28.584C72.5309 28.584 75.8651 29.4681 78.7655 31.2129L79.7965 29.4991C76.5529 27.5479 72.855 26.584 68.733 26.584V28.584ZM78.3744 29.934L77.4024 32.022L79.2156 32.866L80.1876 30.778L78.3744 29.934ZM104.123 53L103.308 53.5795L103.607 54H104.123V53ZM98.3629 44.9L99.1779 44.3205L98.8371 43.8412L98.2525 43.9061L98.3629 44.9ZM89.5789 45.008V44.008H88.5789V45.008H89.5789ZM89.5789 53V54H90.5789V53H89.5789ZM86.9149 53H85.9149V54H86.9149V53ZM86.9149 27.8V26.8H85.9149V27.8H86.9149ZM103.907 30.104L103.263 30.8689L103.263 30.8689L103.907 30.104ZM105.131 41.444L104.326 40.8508L104.324 40.8533L105.131 41.444ZM100.883 44.36L100.574 43.4089L99.2774 43.8299L100.069 44.9403L100.883 44.36ZM107.039 53V54H108.979L107.853 52.4197L107.039 53ZM101.999 41.084L102.641 41.8511L102.641 41.8511L101.999 41.084ZM101.999 31.76L101.357 32.5271L101.366 32.534L101.999 31.76ZM89.5789 30.104V29.104H88.5789V30.104H89.5789ZM89.5789 42.74H88.5789V43.74H89.5789V42.74ZM104.938 52.4205L99.1779 44.3205L97.548 45.4795L103.308 53.5795L104.938 52.4205ZM98.2525 43.9061C97.6435 43.9738 97.0085 44.008 96.3469 44.008V46.008C97.0774 46.008 97.7863 45.9702 98.4734 45.8939L98.2525 43.9061ZM96.3469 44.008H89.5789V46.008H96.3469V44.008ZM88.5789 45.008V53H90.5789V45.008H88.5789ZM89.5789 52H86.9149V54H89.5789V52ZM87.9149 53V27.8H85.9149V53H87.9149ZM86.9149 28.8H96.3469V26.8H86.9149V28.8ZM96.3469 28.8C99.4097 28.8 101.673 29.5305 103.263 30.8689L104.551 29.3391C102.492 27.6055 99.7162 26.8 96.3469 26.8V28.8ZM103.263 30.8689C104.831 32.1893 105.643 34.0048 105.643 36.44H107.643C107.643 33.4992 106.631 31.0907 104.551 29.3391L103.263 30.8689ZM105.643 36.44C105.643 38.2296 105.188 39.6809 104.326 40.8508L105.936 42.0372C107.09 40.4711 107.643 38.5864 107.643 36.44H105.643ZM104.324 40.8533C103.484 42.0008 102.257 42.8626 100.574 43.4089L101.192 45.3111C103.205 44.6574 104.81 43.5752 105.938 42.0347L104.324 40.8533ZM100.069 44.9403L106.225 53.5803L107.853 52.4197L101.697 43.7797L100.069 44.9403ZM107.039 52H104.123V54H107.039V52ZM96.2749 43.74C98.9024 43.74 101.075 43.1606 102.641 41.8511L101.357 40.3169C100.283 41.2154 98.6395 41.74 96.2749 41.74V43.74ZM102.641 41.8511C104.225 40.526 104.979 38.6761 104.979 36.44H102.979C102.979 38.1879 102.413 39.434 101.357 40.3169L102.641 41.8511ZM104.979 36.44C104.979 34.1652 104.23 32.2937 102.632 30.986L101.366 32.534C102.407 33.3863 102.979 34.6348 102.979 36.44H104.979ZM102.641 30.9929C101.075 29.6834 98.9024 29.104 96.2749 29.104V31.104C98.6395 31.104 100.283 31.6286 101.357 32.5271L102.641 30.9929ZM96.2749 29.104H89.5789V31.104H96.2749V29.104ZM88.5789 30.104V42.74H90.5789V30.104H88.5789ZM89.5789 43.74H96.2749V41.74H89.5789V43.74ZM120.743 51.56L120.254 52.4328L120.267 52.4395L120.743 51.56ZM115.991 46.952L115.126 47.4539L115.13 47.4618L115.991 46.952ZM115.991 33.848L115.13 33.3382L115.126 33.3461L115.991 33.848ZM120.743 29.276L121.223 30.1531L121.226 30.1511L120.743 29.276ZM134.279 29.24L133.794 30.1147L133.798 30.1171L134.279 29.24ZM139.031 33.848L138.168 34.3532L138.17 34.3578L139.031 33.848ZM139.031 46.988L139.891 47.4978L139.894 47.4932L139.031 46.988ZM134.279 51.56L133.798 50.6829L133.794 50.6853L134.279 51.56ZM132.947 49.508L133.43 50.3834L133.44 50.3778L132.947 49.508ZM136.727 45.764L137.593 46.263L137.596 46.2573L136.727 45.764ZM136.727 35.072L135.857 35.5653L135.86 35.571L136.727 35.072ZM132.947 31.328L132.453 32.1979L132.463 32.2034L132.947 31.328ZM122.111 31.328L122.594 32.2034L122.598 32.2009L122.111 31.328ZM118.295 35.072L117.43 34.5689L117.428 34.573L118.295 35.072ZM118.295 45.764L117.425 46.2573L117.429 46.2651L117.434 46.2727L118.295 45.764ZM122.111 49.508L121.617 50.3778L121.625 50.3822L121.633 50.3864L122.111 49.508ZM127.547 52.216C125.204 52.216 123.101 51.6995 121.219 50.6805L120.267 52.4395C122.464 53.6285 124.897 54.216 127.547 54.216V52.216ZM121.231 50.6873C119.365 49.6434 117.911 48.2311 116.851 46.4422L115.13 47.4618C116.374 49.5609 118.088 51.2206 120.254 52.4327L121.231 50.6873ZM116.856 46.4501C115.823 44.6705 115.299 42.662 115.299 40.4H113.299C113.299 42.986 113.902 45.3455 115.126 47.4539L116.856 46.4501ZM115.299 40.4C115.299 38.138 115.823 36.1295 116.856 34.3499L115.126 33.3461C113.902 35.4545 113.299 37.814 113.299 40.4H115.299ZM116.851 34.3578C117.91 32.5709 119.361 31.1725 121.223 30.1531L120.262 28.3989C118.092 29.5875 116.375 31.2371 115.13 33.3382L116.851 34.3578ZM121.226 30.1511C123.108 29.1108 125.207 28.584 127.547 28.584V26.584C124.894 26.584 122.457 27.1852 120.259 28.4009L121.226 30.1511ZM127.547 28.584C129.89 28.584 131.964 29.1006 133.794 30.1147L134.763 28.3653C132.609 27.1714 130.195 26.584 127.547 26.584V28.584ZM133.798 30.1171C135.657 31.1348 137.108 32.5428 138.168 34.3532L139.894 33.3428C138.649 31.2172 136.932 29.5532 134.759 28.3629L133.798 30.1171ZM138.17 34.3578C139.224 36.1362 139.759 38.1419 139.759 40.4H141.759C141.759 37.8101 141.141 35.4478 139.891 33.3382L138.17 34.3578ZM139.759 40.4C139.759 42.658 139.224 44.6778 138.168 46.4828L139.894 47.4932C141.141 45.3622 141.759 42.99 141.759 40.4H139.759ZM138.17 46.4782C137.111 48.2651 135.66 49.6635 133.798 50.6829L134.759 52.4371C136.929 51.2485 138.646 49.5989 139.891 47.4978L138.17 46.4782ZM133.794 50.6853C131.964 51.6994 129.89 52.216 127.547 52.216V54.216C130.195 54.216 132.609 53.6286 134.763 52.4347L133.794 50.6853ZM127.547 51.84C129.693 51.84 131.662 51.3599 133.43 50.3834L132.463 48.6326C131.015 49.4321 129.384 49.84 127.547 49.84V51.84ZM133.44 50.3778C135.201 49.3788 136.591 48.0035 137.593 46.263L135.86 45.265C135.038 46.6925 133.908 47.8132 132.453 48.6382L133.44 50.3778ZM137.596 46.2573C138.599 44.4892 139.095 42.5294 139.095 40.4H137.095C137.095 42.2066 136.678 43.8228 135.857 45.2707L137.596 46.2573ZM139.095 40.4C139.095 38.2707 138.599 36.3204 137.593 34.573L135.86 35.571C136.678 36.9916 137.095 38.5933 137.095 40.4H139.095ZM137.596 34.5787C136.594 32.8112 135.201 31.4305 133.43 30.4526L132.463 32.2034C133.908 33.0015 135.035 34.1168 135.857 35.5653L137.596 34.5787ZM133.44 30.4582C131.67 29.4543 129.698 28.96 127.547 28.96V30.96C129.379 30.96 131.007 31.3777 132.453 32.1978L133.44 30.4582ZM127.547 28.96C125.395 28.96 123.414 29.4543 121.623 30.4551L122.598 32.2009C124.072 31.3777 125.714 30.96 127.547 30.96V28.96ZM121.627 30.4526C119.859 31.4292 118.456 32.8068 117.43 34.5689L119.159 35.5751C120.005 34.1212 121.146 33.0028 122.594 32.2034L121.627 30.4526ZM117.428 34.573C116.422 36.3204 115.927 38.2707 115.927 40.4H117.927C117.927 38.5933 118.343 36.9916 119.161 35.571L117.428 34.573ZM115.927 40.4C115.927 42.5294 116.422 44.4892 117.425 46.2573L119.164 45.2707C118.343 43.8228 117.927 42.2066 117.927 40.4H115.927ZM117.434 46.2727C118.459 48.0079 119.858 49.3801 121.617 50.3778L122.604 48.6382C121.147 47.8119 120.002 46.6881 119.155 45.2553L117.434 46.2727ZM121.633 50.3864C123.422 51.3599 125.4 51.84 127.547 51.84V49.84C125.709 49.84 124.063 49.4321 122.589 48.6296L121.633 50.3864ZM168.373 50.696H169.373V49.696H168.373V50.696ZM168.373 53V54H169.373V53H168.373ZM147.709 53H146.709V54H147.709V53ZM147.709 51.308L146.922 50.6909L146.709 50.9627V51.308H147.709ZM155.557 41.3L156.344 41.9171L157.612 40.3H155.557V41.3ZM149.977 41.3H148.977V42.3H149.977V41.3ZM149.977 39.068V38.068H148.977V39.068H149.977ZM157.285 39.068V40.068H157.772L158.073 39.6846L157.285 39.068ZM164.305 30.104L165.093 30.7206L166.359 29.104H164.305V30.104ZM147.817 30.104H146.817V31.104H147.817V30.104ZM147.817 27.8V26.8H146.817V27.8H147.817ZM167.833 27.8H168.833V26.8H167.833V27.8ZM167.833 29.456L168.622 30.071L168.833 29.7998V29.456H167.833ZM160.309 39.104L159.521 38.489L158.261 40.104H160.309V39.104ZM165.529 39.104H166.529V38.104H165.529V39.104ZM165.529 41.336V42.336H166.529V41.336H165.529ZM158.581 41.336V40.336H158.093L157.793 40.7206L158.581 41.336ZM151.273 50.696L150.485 50.0806L149.224 51.696H151.273V50.696ZM167.373 50.696V53H169.373V50.696H167.373ZM168.373 52H147.709V54H168.373V52ZM148.709 53V51.308H146.709V53H148.709ZM148.496 51.9251L156.344 41.9171L154.77 40.6829L146.922 50.6909L148.496 51.9251ZM155.557 40.3H149.977V42.3H155.557V40.3ZM150.977 41.3V39.068H148.977V41.3H150.977ZM149.977 40.068H157.285V38.068H149.977V40.068ZM158.073 39.6846L165.093 30.7206L163.518 29.4874L156.498 38.4514L158.073 39.6846ZM164.305 29.104H147.817V31.104H164.305V29.104ZM148.817 30.104V27.8H146.817V30.104H148.817ZM147.817 28.8H167.833V26.8H147.817V28.8ZM166.833 27.8V29.456H168.833V27.8H166.833ZM167.045 28.841L159.521 38.489L161.098 39.719L168.622 30.071L167.045 28.841ZM160.309 40.104H165.529V38.104H160.309V40.104ZM164.529 39.104V41.336H166.529V39.104H164.529ZM165.529 40.336H158.581V42.336H165.529V40.336ZM157.793 40.7206L150.485 50.0806L152.062 51.3114L159.37 41.9514L157.793 40.7206ZM151.273 51.696H168.373V49.696H151.273V51.696ZM181.31 51.56L180.821 52.4328L180.834 52.4395L181.31 51.56ZM176.558 46.952L175.693 47.4539L175.697 47.4618L176.558 46.952ZM176.558 33.848L175.697 33.3382L175.693 33.3461L176.558 33.848ZM181.31 29.276L181.79 30.1531L181.794 30.1511L181.31 29.276ZM194.846 29.24L194.361 30.1147L194.365 30.1171L194.846 29.24ZM199.598 33.848L198.735 34.3532L198.737 34.3578L199.598 33.848ZM199.598 46.988L200.458 47.4978L200.461 47.4932L199.598 46.988ZM194.846 51.56L194.365 50.6829L194.361 50.6853L194.846 51.56ZM193.514 49.508L193.997 50.3834L194.007 50.3778L193.514 49.508ZM197.294 45.764L198.16 46.263L198.164 46.2573L197.294 45.764ZM197.294 35.072L196.424 35.5653L196.427 35.571L197.294 35.072ZM193.514 31.328L193.02 32.1979L193.03 32.2034L193.514 31.328ZM182.678 31.328L183.161 32.2034L183.166 32.2009L182.678 31.328ZM178.862 35.072L177.998 34.5689L177.995 34.573L178.862 35.072ZM178.862 45.764L177.992 46.2573L177.996 46.2651L178.001 46.2727L178.862 45.764ZM182.678 49.508L182.184 50.3778L182.192 50.3822L182.2 50.3864L182.678 49.508ZM188.114 52.216C185.771 52.216 183.669 51.6995 181.786 50.6805L180.834 52.4395C183.031 53.6285 185.465 54.216 188.114 54.216V52.216ZM181.798 50.6873C179.932 49.6434 178.478 48.2311 177.418 46.4422L175.697 47.4618C176.941 49.5609 178.655 51.2206 180.821 52.4327L181.798 50.6873ZM177.423 46.4501C176.39 44.6705 175.866 42.662 175.866 40.4H173.866C173.866 42.986 174.469 45.3455 175.693 47.4539L177.423 46.4501ZM175.866 40.4C175.866 38.138 176.39 36.1295 177.423 34.3499L175.693 33.3461C174.469 35.4545 173.866 37.814 173.866 40.4H175.866ZM177.418 34.3578C178.477 32.5709 179.929 31.1725 181.79 30.1531L180.829 28.3989C178.659 29.5875 176.943 31.2371 175.697 33.3382L177.418 34.3578ZM181.794 30.1511C183.675 29.1108 185.775 28.584 188.114 28.584V26.584C185.461 26.584 183.024 27.1852 180.826 28.4009L181.794 30.1511ZM188.114 28.584C190.457 28.584 192.531 29.1006 194.361 30.1147L195.331 28.3653C193.176 27.1714 190.763 26.584 188.114 26.584V28.584ZM194.365 30.1171C196.224 31.1348 197.675 32.5428 198.735 34.3532L200.461 33.3428C199.216 31.2172 197.5 29.5532 195.326 28.3629L194.365 30.1171ZM198.737 34.3578C199.791 36.1362 200.326 38.1419 200.326 40.4H202.326C202.326 37.8101 201.708 35.4478 200.458 33.3382L198.737 34.3578ZM200.326 40.4C200.326 42.658 199.791 44.6778 198.735 46.4828L200.461 47.4932C201.708 45.3622 202.326 42.99 202.326 40.4H200.326ZM198.737 46.4782C197.679 48.2651 196.227 49.6635 194.365 50.6829L195.326 52.4371C197.497 51.2485 199.213 49.5989 200.458 47.4978L198.737 46.4782ZM194.361 50.6853C192.531 51.6994 190.457 52.216 188.114 52.216V54.216C190.763 54.216 193.176 53.6286 195.331 52.4347L194.361 50.6853ZM188.114 51.84C190.26 51.84 192.229 51.3599 193.997 50.3834L193.03 48.6326C191.583 49.4321 189.951 49.84 188.114 49.84V51.84ZM194.007 50.3778C195.769 49.3788 197.158 48.0035 198.16 46.263L196.427 45.265C195.605 46.6925 194.475 47.8132 193.02 48.6382L194.007 50.3778ZM198.164 46.2573C199.166 44.4892 199.662 42.5294 199.662 40.4H197.662C197.662 42.2066 197.245 43.8228 196.424 45.2707L198.164 46.2573ZM199.662 40.4C199.662 38.2707 199.166 36.3204 198.16 34.573L196.427 35.571C197.245 36.9916 197.662 38.5933 197.662 40.4H199.662ZM198.164 34.5787C197.161 32.8112 195.768 31.4305 193.997 30.4526L193.03 32.2034C194.476 33.0015 195.602 34.1168 196.424 35.5653L198.164 34.5787ZM194.007 30.4582C192.237 29.4543 190.265 28.96 188.114 28.96V30.96C189.947 30.96 191.574 31.3777 193.02 32.1978L194.007 30.4582ZM188.114 28.96C185.963 28.96 183.981 29.4543 182.19 30.4551L183.166 32.2009C184.639 31.3777 186.281 30.96 188.114 30.96V28.96ZM182.194 30.4526C180.426 31.4292 179.023 32.8068 177.998 34.5689L179.726 35.5751C180.572 34.1212 181.714 33.0028 183.161 32.2034L182.194 30.4526ZM177.995 34.573C176.989 36.3204 176.494 38.2707 176.494 40.4H178.494C178.494 38.5933 178.91 36.9916 179.728 35.571L177.995 34.573ZM176.494 40.4C176.494 42.5294 176.989 44.4892 177.992 46.2573L179.732 45.2707C178.91 43.8228 178.494 42.2066 178.494 40.4H176.494ZM178.001 46.2727C179.026 48.0079 180.425 49.3801 182.184 50.3778L183.171 48.6382C181.714 47.8119 180.569 46.6881 179.723 45.2553L178.001 46.2727ZM182.2 50.3864C183.989 51.3599 185.967 51.84 188.114 51.84V49.84C186.276 49.84 184.631 49.4321 183.156 48.6296L182.2 50.3864ZM229.077 30.284L228.351 30.9715L228.356 30.9765L229.077 30.284ZM231.669 53V54H232.669V53H231.669ZM229.005 53H228.005V54H229.005V53ZM227.025 32.012L226.305 32.7064L226.305 32.7064L227.025 32.012ZM215.649 32.156L216.368 32.851L216.374 32.8451L215.649 32.156ZM213.561 53V54H214.561V53H213.561ZM210.897 53H209.897V54H210.897V53ZM210.897 27.8V26.8H209.897V27.8H210.897ZM213.453 27.8H214.453V26.8H213.453V27.8ZM213.453 32.048H212.453L214.333 32.5234L213.453 32.048ZM221.985 28.584C224.799 28.584 226.876 29.4137 228.351 30.9715L229.803 29.5965C227.87 27.5543 225.219 26.584 221.985 26.584V28.584ZM228.356 30.9765C229.851 32.5346 230.669 34.8209 230.669 37.988H232.669C232.669 34.4831 231.759 31.6334 229.798 29.5915L228.356 30.9765ZM230.669 37.988V53H232.669V37.988H230.669ZM231.669 52H229.005V54H231.669V52ZM230.005 53V38.06H228.005V53H230.005ZM230.005 38.06C230.005 35.2419 229.306 32.9359 227.745 31.3176L226.305 32.7064C227.384 33.8241 228.005 35.5501 228.005 38.06H230.005ZM227.745 31.3176C226.191 29.7079 224.056 28.96 221.481 28.96V30.96C223.658 30.96 225.219 31.5801 226.305 32.7064L227.745 31.3176ZM221.481 28.96C218.78 28.96 216.548 29.7594 214.924 31.4669L216.374 32.8451C217.534 31.6246 219.19 30.96 221.481 30.96V28.96ZM214.93 31.461C213.29 33.157 212.561 35.6249 212.561 38.672H214.561C214.561 35.9111 215.223 34.035 216.368 32.851L214.93 31.461ZM212.561 38.672V53H214.561V38.672H212.561ZM213.561 52H210.897V54H213.561V52ZM211.897 53V27.8H209.897V53H211.897ZM210.897 28.8H213.453V26.8H210.897V28.8ZM212.453 27.8V32.048H214.453V27.8H212.453ZM214.333 32.5234C215.727 29.943 218.182 28.584 221.985 28.584V26.584C217.628 26.584 214.395 28.201 212.573 31.5726L214.333 32.5234ZM261.255 50.12L261.945 50.8437L262.48 50.3338L262.149 49.6728L261.255 50.12ZM257.115 52.424L257.411 53.3792L257.419 53.3766L257.115 52.424ZM245.775 52.316L245.411 53.2475L245.416 53.2493L245.775 52.316ZM242.283 49.832L241.474 50.4202L241.478 50.4261L241.483 50.432L242.283 49.832ZM242.463 42.344L241.706 41.6903L241.697 41.7004L242.463 42.344ZM246.027 40.148L246.295 41.1113L249.227 40.2943L246.382 39.2132L246.027 40.148ZM243.219 37.988L242.387 38.5427L242.393 38.552L243.219 37.988ZM243.291 31.004L242.473 30.428L242.471 30.4318L243.291 31.004ZM246.603 28.52L246.982 29.4453L246.99 29.4422L246.603 28.52ZM256.431 28.124L256.188 29.0941L256.198 29.0965L256.207 29.0987L256.431 28.124ZM260.175 29.6L261.106 29.9632L261.407 29.1928L260.707 28.7531L260.175 29.6ZM259.347 31.724L258.855 32.5946L259.859 33.1624L260.278 32.0872L259.347 31.724ZM246.711 31.184L246.131 30.3692L246.124 30.3746L246.711 31.184ZM246.351 37.916L245.735 38.7044L245.745 38.7114L246.351 37.916ZM256.863 39.068H257.863V38.068H256.863V39.068ZM256.863 41.372V42.372H257.863V41.372H256.863ZM245.595 42.56L246.134 43.4024L246.146 43.3946L245.595 42.56ZM245.739 49.616L245.174 50.441L245.181 50.4457L245.739 49.616ZM256.503 50.192L256.815 51.1422L256.815 51.1422L256.503 50.192ZM260.247 48.104L261.141 47.6568L260.546 46.4654L259.568 47.3699L260.247 48.104ZM260.565 49.3963C259.668 50.2513 258.432 50.9533 256.81 51.4714L257.419 53.3766C259.253 52.7907 260.778 51.9567 261.945 50.8437L260.565 49.3963ZM256.819 51.4688C255.225 51.9625 253.431 52.216 251.427 52.216V54.216C253.598 54.216 255.596 53.9415 257.411 53.3792L256.819 51.4688ZM251.427 52.216C249.304 52.216 247.549 51.927 246.134 51.3827L245.416 53.2493C247.121 53.905 249.133 54.216 251.427 54.216V52.216ZM246.139 51.3845C244.733 50.8355 243.738 50.106 243.083 49.232L241.483 50.432C242.411 51.67 243.745 52.5965 245.411 53.2475L246.139 51.3845ZM243.092 49.2438C242.454 48.3672 242.131 47.3634 242.131 46.196H240.131C240.131 47.7646 240.576 49.1848 241.474 50.4202L243.092 49.2438ZM242.131 46.196C242.131 44.8953 242.507 43.8457 243.228 42.9876L241.697 41.7004C240.643 42.9543 240.131 44.4727 240.131 46.196H242.131ZM243.22 42.9976C243.991 42.104 245.003 41.4713 246.295 41.1113L245.758 39.1847C244.122 39.6407 242.758 40.472 241.706 41.6904L243.22 42.9976ZM246.382 39.2132C245.358 38.8239 244.592 38.226 244.045 37.424L242.393 38.552C243.189 39.718 244.296 40.5601 245.672 41.0828L246.382 39.2132ZM244.051 37.4333C243.5 36.6073 243.211 35.629 243.211 34.46H241.211C241.211 35.979 241.593 37.3527 242.387 38.5427L244.051 37.4333ZM243.211 34.46C243.211 33.3903 243.509 32.4384 244.111 31.5762L242.471 30.4318C241.632 31.6336 241.211 32.9857 241.211 34.46H243.211ZM244.108 31.58C244.72 30.7116 245.655 29.9893 246.982 29.4453L246.224 27.5947C244.623 28.2507 243.35 29.1844 242.473 30.428L244.108 31.58ZM246.99 29.4422C248.325 28.8822 249.974 28.584 251.967 28.584V26.584C249.783 26.584 247.857 26.9098 246.216 27.5978L246.99 29.4422ZM251.967 28.584C253.424 28.584 254.83 28.7547 256.188 29.0941L256.673 27.1539C255.151 26.7733 253.582 26.584 251.967 26.584V28.584ZM256.207 29.0987C257.586 29.4152 258.725 29.8704 259.643 30.4469L260.707 28.7531C259.561 28.0336 258.203 27.5048 256.654 27.1493L256.207 29.0987ZM259.243 29.2368L258.415 31.3608L260.278 32.0872L261.106 29.9632L259.243 29.2368ZM259.839 30.8534C257.474 29.517 254.88 28.852 252.075 28.852V30.852C254.55 30.852 256.803 31.435 258.855 32.5946L259.839 30.8534ZM252.075 28.852C249.641 28.852 247.616 29.3129 246.131 30.3692L247.291 31.9988C248.302 31.2791 249.853 30.852 252.075 30.852V28.852ZM246.124 30.3746C244.661 31.4357 243.875 32.879 243.875 34.64H245.875C245.875 33.569 246.313 32.7083 247.298 31.9934L246.124 30.3746ZM243.875 34.64C243.875 36.317 244.474 37.7197 245.736 38.7043L246.966 37.1277C246.26 36.5763 245.875 35.795 245.875 34.64H243.875ZM245.745 38.7114C246.989 39.6592 248.649 40.068 250.599 40.068V38.068C248.901 38.068 247.729 37.7088 246.957 37.1206L245.745 38.7114ZM250.599 40.068H256.863V38.068H250.599V40.068ZM255.863 39.068V41.372H257.863V39.068H255.863ZM256.863 40.372H250.491V42.372H256.863V40.372ZM250.491 40.372C248.312 40.372 246.464 40.7881 245.044 41.7254L246.146 43.3946C247.125 42.7479 248.541 42.372 250.491 42.372V40.372ZM245.056 41.7177C243.543 42.6861 242.795 44.1709 242.795 46.016H244.795C244.795 44.7891 245.247 43.9699 246.134 43.4023L245.056 41.7177ZM242.795 46.016C242.795 47.8729 243.618 49.3752 245.174 50.4409L246.304 48.7911C245.267 48.0808 244.795 47.1831 244.795 46.016H242.795ZM245.181 50.4457C246.737 51.493 248.901 51.948 251.535 51.948V49.948C249.081 49.948 247.38 49.515 246.297 48.7863L245.181 50.4457ZM251.535 51.948C253.406 51.948 255.169 51.6823 256.815 51.1422L256.191 49.2418C254.765 49.7097 253.215 49.948 251.535 49.948V51.948ZM256.815 51.1422C258.456 50.6037 259.839 49.8439 260.926 48.8381L259.568 47.3699C258.735 48.1401 257.622 48.7723 256.191 49.2418L256.815 51.1422ZM259.352 48.5512L260.36 50.5672L262.149 49.6728L261.141 47.6568L259.352 48.5512Z" fill="white"/>
<path d="M127.5 25C118.94 25 112 31.9396 112 40.5C112 49.0604 118.94 56 127.5 56C136.06 56 143 49.0604 143 40.5C143 31.9396 136.06 25 127.5 25Z" fill="black"/>
<path d="M112.25 40.5C112.25 32.0777 119.078 25.25 127.5 25.25C135.922 25.25 142.75 32.0777 142.75 40.5C142.75 48.9223 135.922 55.75 127.5 55.75C119.078 55.75 112.25 48.9223 112.25 40.5ZM114.53 40.6173C114.53 47.7805 120.337 53.5875 127.5 53.5875C134.663 53.5875 140.47 47.7806 140.47 40.6173C140.47 33.4541 134.663 27.6471 127.5 27.6471C120.337 27.6471 114.53 33.4541 114.53 40.6173Z" fill="#7EC9C5" stroke="black" stroke-width="0.5"/>
<path d="M119.378 40.4553L115.983 45.7931H139.017L127.413 28.0307L119.378 40.4553ZM119.378 40.4553L115.983 35.1176H139.017L127.413 53.2291L119.378 40.4553Z" stroke="white"/>
<mask id="path-7-inside-1" fill="white">
<path d="M131.602 39.4074L128 35.8727C127.581 35.4614 126.899 35.4614 126.48 35.8727L122.879 39.4074C122.459 39.8189 122.459 40.4883 122.879 40.8998L126.48 44.4345C126.69 44.6402 126.965 44.743 127.24 44.743C127.516 44.743 127.791 44.6402 128 44.4345L131.602 40.8998C132.021 40.4883 132.021 39.8189 131.602 39.4074ZM130.928 40.2387L127.327 43.7734C127.279 43.8204 127.201 43.8204 127.154 43.7734L123.552 40.2387C123.504 40.1918 123.504 40.1154 123.552 40.0686L127.154 36.5339C127.177 36.5103 127.209 36.4987 127.24 36.4987C127.272 36.4987 127.303 36.5103 127.327 36.5339L130.928 40.0686C130.976 40.1154 130.976 40.1918 130.928 40.2387Z"/>
</mask>
<path d="M131.602 39.4074L128 35.8727C127.581 35.4614 126.899 35.4614 126.48 35.8727L122.879 39.4074C122.459 39.8189 122.459 40.4883 122.879 40.8998L126.48 44.4345C126.69 44.6402 126.965 44.743 127.24 44.743C127.516 44.743 127.791 44.6402 128 44.4345L131.602 40.8998C132.021 40.4883 132.021 39.8189 131.602 39.4074ZM130.928 40.2387L127.327 43.7734C127.279 43.8204 127.201 43.8204 127.154 43.7734L123.552 40.2387C123.504 40.1918 123.504 40.1154 123.552 40.0686L127.154 36.5339C127.177 36.5103 127.209 36.4987 127.24 36.4987C127.272 36.4987 127.303 36.5103 127.327 36.5339L130.928 40.0686C130.976 40.1154 130.976 40.1918 130.928 40.2387Z" fill="white"/>
<path d="M131.602 39.4074L133.003 37.9802L133.003 37.9801L131.602 39.4074ZM128 35.8727L129.401 34.4454L129.401 34.4452L128 35.8727ZM126.48 35.8727L125.079 34.4452L125.079 34.4454L126.48 35.8727ZM122.879 39.4074L121.478 37.9801L121.478 37.9802L122.879 39.4074ZM122.879 40.8998L121.478 42.327L121.478 42.3271L122.879 40.8998ZM126.48 44.4345L125.079 45.8618L125.079 45.8621L126.48 44.4345ZM128 44.4345L129.401 45.8618L129.401 45.8618L128 44.4345ZM131.602 40.8998L133.003 42.3271L133.003 42.327L131.602 40.8998ZM130.928 40.2387L129.528 38.8104L129.527 38.8113L130.928 40.2387ZM127.327 43.7734L125.926 42.346L125.924 42.3479L127.327 43.7734ZM127.154 43.7734L128.556 42.3479L128.555 42.346L127.154 43.7734ZM123.552 40.2387L124.953 38.8113L124.952 38.8104L123.552 40.2387ZM123.552 40.0686L124.952 41.4969L124.953 41.4959L123.552 40.0686ZM127.154 36.5339L128.555 37.9612L128.556 37.9594L127.154 36.5339ZM127.327 36.5339L125.922 37.9576L125.926 37.9612L127.327 36.5339ZM130.928 40.0686L129.527 41.4959L129.528 41.4969L130.928 40.0686ZM133.003 37.9801L129.401 34.4454L126.6 37.3001L130.201 40.8348L133.003 37.9801ZM129.401 34.4452C128.204 33.2706 126.276 33.2706 125.079 34.4452L127.881 37.3003C127.522 37.6522 126.958 37.6522 126.6 37.3003L129.401 34.4452ZM125.079 34.4454L121.478 37.9801L124.28 40.8348L127.881 37.3001L125.079 34.4454ZM121.478 37.9802C120.26 39.1756 120.26 41.1317 121.478 42.327L124.28 39.4725C124.659 39.845 124.659 40.4622 124.28 40.8347L121.478 37.9802ZM121.478 42.3271L125.079 45.8618L127.881 43.0071L124.28 39.4724L121.478 42.3271ZM125.079 45.8621C125.683 46.4542 126.47 46.743 127.24 46.743V42.743C127.46 42.743 127.697 42.8262 127.881 43.0069L125.079 45.8621ZM127.24 46.743C128.011 46.743 128.798 46.4543 129.401 45.8618L126.6 43.0071C126.784 42.826 127.02 42.743 127.24 42.743V46.743ZM129.401 45.8618L133.003 42.3271L130.201 39.4724L126.6 43.0071L129.401 45.8618ZM133.003 42.327C134.221 41.1317 134.221 39.1756 133.003 37.9802L130.201 40.8347C129.821 40.4622 129.821 39.845 130.201 39.4725L133.003 42.327ZM129.527 38.8113L125.926 42.346L128.728 45.2008L132.329 41.6661L129.527 38.8113ZM125.924 42.3479C126.655 41.6289 127.826 41.6289 128.556 42.3479L125.751 45.1989C126.577 46.0119 127.904 46.0119 128.73 45.1989L125.924 42.3479ZM128.555 42.346L124.953 38.8113L122.151 41.6661L125.753 45.2008L128.555 42.346ZM124.952 38.8104C125.704 39.5477 125.704 40.7596 124.952 41.4969L122.152 38.6403C121.304 39.4713 121.304 40.836 122.152 41.667L124.952 38.8104ZM124.953 41.4959L128.555 37.9612L125.753 35.1065L122.151 38.6412L124.953 41.4959ZM128.556 37.9594C128.184 38.3254 127.702 38.4987 127.24 38.4987V34.4987C126.715 34.4987 126.171 34.6953 125.751 35.1083L128.556 37.9594ZM127.24 38.4987C126.779 38.4987 126.295 38.3256 125.922 37.9576L128.732 35.1101C128.311 34.695 127.765 34.4987 127.24 34.4987V38.4987ZM125.926 37.9612L129.527 41.4959L132.329 38.6412L128.728 35.1065L125.926 37.9612ZM129.528 41.4969C128.776 40.7596 128.776 39.5477 129.528 38.8104L132.328 41.667C133.176 40.836 133.176 39.4713 132.328 38.6403L129.528 41.4969Z" fill="black" mask="url(#path-7-inside-1)"/>
<mask id="path-9-inside-2" fill="white">
<path d="M127.271 38.5211C126.334 38.5211 125.571 39.2513 125.571 40.1489C125.571 41.0465 126.334 41.7767 127.271 41.7767C128.209 41.7767 128.972 41.0465 128.972 40.1489C128.972 39.2513 128.209 38.5211 127.271 38.5211ZM127.271 40.8588C126.862 40.8588 126.53 40.5404 126.53 40.1489C126.53 39.7575 126.862 39.439 127.271 39.439C127.68 39.439 128.013 39.7575 128.013 40.1489C128.013 40.5404 127.68 40.8588 127.271 40.8588Z"/>
</mask>
<path d="M127.271 38.5211C126.334 38.5211 125.571 39.2513 125.571 40.1489C125.571 41.0465 126.334 41.7767 127.271 41.7767C128.209 41.7767 128.972 41.0465 128.972 40.1489C128.972 39.2513 128.209 38.5211 127.271 38.5211ZM127.271 40.8588C126.862 40.8588 126.53 40.5404 126.53 40.1489C126.53 39.7575 126.862 39.439 127.271 39.439C127.68 39.439 128.013 39.7575 128.013 40.1489C128.013 40.5404 127.68 40.8588 127.271 40.8588Z" fill="white"/>
<path d="M127.271 36.5211C125.312 36.5211 123.571 38.0655 123.571 40.1489H127.571C127.571 40.2829 127.511 40.3871 127.453 40.443C127.396 40.4976 127.328 40.5211 127.271 40.5211V36.5211ZM123.571 40.1489C123.571 42.2323 125.312 43.7767 127.271 43.7767V39.7767C127.328 39.7767 127.396 39.8001 127.453 39.8547C127.511 39.9106 127.571 40.0149 127.571 40.1489H123.571ZM127.271 43.7767C129.23 43.7767 130.972 42.2323 130.972 40.1489H126.972C126.972 40.0149 127.032 39.9106 127.09 39.8547C127.147 39.8001 127.215 39.7767 127.271 39.7767V43.7767ZM130.972 40.1489C130.972 38.0655 129.23 36.5211 127.271 36.5211V40.5211C127.215 40.5211 127.147 40.4976 127.09 40.443C127.032 40.3871 126.972 40.2829 126.972 40.1489H130.972ZM127.271 38.8588C127.884 38.8588 128.53 39.3545 128.53 40.1489H124.53C124.53 41.7262 125.841 42.8588 127.271 42.8588V38.8588ZM128.53 40.1489C128.53 40.9431 127.884 41.439 127.271 41.439V37.439C125.841 37.439 124.53 38.5718 124.53 40.1489H128.53ZM127.271 41.439C126.658 41.439 126.013 40.9431 126.013 40.1489H130.013C130.013 38.5718 128.702 37.439 127.271 37.439V41.439ZM126.013 40.1489C126.013 39.3545 126.659 38.8588 127.271 38.8588V42.8588C128.702 42.8588 130.013 41.7262 130.013 40.1489H126.013Z" fill="black" mask="url(#path-9-inside-2)"/>
<ellipse cx="127.069" cy="40.9305" rx="2.15278" ry="2.15278" fill="#7EC9C5"/>
</svg>
